<svg width="70" height="70" viewBox="0 0 70 70" fill="none" xmlns="http://www.w3.org/2000/svg">
<path fill-rule="evenodd" clip-rule="evenodd" d="M36.1125 7.59075L24.1041 0.684145L23.1006 0.304064L22.0318 0.0760161L20.9084 0L19.7304 0.0651567L18.5307 0.271486L17.2982 0.618988L16.0439 1.0968L14.7678 1.69407L13.5026 2.43252L12.2375 3.27955L10.9832 4.2569L9.7507 5.34285L8.55095 6.53738L7.38392 7.84052L6.26051 9.24139L5.20255 10.7508L4.19913 12.358L3.28295 14.0521L2.43222 15.8331L1.66874 17.7118L1.00343 19.6556L0.447179 21.6863L-8.32124e-08 23.7822L12.0193 30.6996L12.4556 28.5929L13.0118 26.5622L13.6772 24.6075L14.4406 22.7397L15.2914 20.9587L16.2184 19.2647L17.211 17.6575L18.2798 16.1589L19.3923 14.7363L20.5594 13.444L21.7591 12.2386L22.9916 11.1526L24.2459 10.1862L25.5111 9.33912L26.7762 8.60068L28.0523 8.00341L29.3066 7.52559L30.5391 7.17809L31.7498 6.97176L32.9168 6.90661L34.0402 6.98262L35.1091 7.21067L36.1125 7.59075Z" transform="translate(28.9902)" fill="#AC222A"/>
<path fill-rule="evenodd" clip-rule="evenodd" d="M36.8105 7.7645L24.7912 0.857896L23.7987 0.412659L22.7298 0.119454L21.6173 -2.89978e-07L20.4503 0.0325788L19.2505 0.217188L18.0181 0.553832L16.7638 1.02079L15.4986 1.62892L14.2225 2.3565L12.9573 3.20354L11.703 4.18088L10.4705 5.24511L9.25989 6.42879L8.09286 7.7102L6.96946 9.07849L5.90059 10.5337L4.88626 12.0648L3.95918 13.672L3.09754 15.3553L2.32315 17.0928L1.64693 18.8846L1.07978 20.7307L0.621689 22.6202L0.283577 24.5423L0.0763477 26.5079L0 28.4952L0.0545341 29.7766L0.218136 30.9929L0.490807 32.1331L0.861639 33.2082L1.33063 34.2181L1.87597 35.1629L2.50857 36.0642L3.21751 36.9004L4.0028 37.6823L4.85353 38.4099L5.7588 39.094L6.7186 39.7238L7.73294 40.3211L19.7413 47.2277L18.727 46.6413L17.7672 46.0006L16.8619 45.3165L16.0112 44.5889L15.2368 43.807L14.5279 42.96L13.8844 42.0695L13.339 41.1247L12.87 40.1148L12.5101 39.0397L12.2375 37.8886L12.0629 36.6832L12.0193 35.4018L12.0848 33.4145L12.292 31.4598L12.6301 29.5268L13.0882 27.6373L13.6662 25.7912L14.3425 23.9994L15.1059 22.2619L15.9676 20.5786L16.9056 18.9714L17.909 17.4403L18.9888 15.9851L20.1013 14.6168L21.2792 13.3354L22.479 12.1626L23.7114 11.0766L24.9766 10.1101L26.2418 9.26311L27.507 8.52466L28.7722 7.92739L30.0265 7.46044L31.2589 7.12379L32.4587 6.93918L33.6257 6.90661L34.7491 7.02606L35.8071 7.30841L36.8105 7.7645Z" transform="translate(0 16.3218)" fill="#AC222A"/>
<path fill-rule="evenodd" clip-rule="evenodd" d="M29.0121 63.0962C38.3266 49.5653 58.0025 25.5551 58.0025 11.4813C58.0025 -9.81409 33.1131 0.969342 29.0121 23.785C24.9003 5.6932 0 23.5027 0 44.8198C0 58.8936 19.6323 60.3162 29.0121 63.0962Z" transform="translate(11.9971 6.90381)" fill="#EA3E48"/>
</svg>
