<?xml version="1.0" encoding="utf-8"?>
<!-- Generator: Adobe Illustrator 16.0.0, SVG Export Plug-In . SVG Version: 6.00 Build 0)  -->
<!DOCTYPE svg PUBLIC "-//W3C//DTD SVG 1.1//EN" "http://www.w3.org/Graphics/SVG/1.1/DTD/svg11.dtd">
<svg version="1.1" id="Layer_1" xmlns="http://www.w3.org/2000/svg" xmlns:xlink="http://www.w3.org/1999/xlink" x="0px" y="0px"
	 width="240px" height="120px" viewBox="0 0 240 120" enable-background="new 0 0 240 120" xml:space="preserve">
<g>
	<path fill="#2697C0" d="M86.109,61.718c9.174-5.294,21.352-7.994,33.582-8.072c12.229-0.08,24.51,2.461,33.891,7.639
		s14.07,12.1,14.07,19.083c0,6.982-4.689,14.023-14.07,19.44c-9.338,5.392-21.557,8.147-33.731,8.249
		c-12.281,0.101-24.527-2.496-33.741-7.816c-9.175-5.299-13.762-12.278-13.762-19.262C72.348,73.998,76.935,67.015,86.109,61.718"/>
	<polygon fill="#2697C0" points="78.339,88.685 72.348,80.979 72.348,70.726 77.7,74.463 	"/>
	<path fill="#2697C0" d="M167.652,80.368V70.087c0,0-7.091,1.202-7.272,1.284c-0.184,0.085,2.813,11.063,2.813,11.063
		L167.652,80.368z"/>
	<path fill="#3AC0F0" d="M86.109,50.778c9.174-5.296,21.352-7.994,33.582-8.072c12.229-0.079,24.51,2.461,33.891,7.639
		c9.381,5.179,14.07,12.101,14.07,19.083s-4.689,14.022-14.07,19.438c-9.338,5.392-21.557,8.147-33.731,8.251
		c-12.281,0.103-24.527-2.495-33.741-7.816c-9.175-5.299-13.762-12.28-13.762-19.262S76.935,56.074,86.109,50.778"/>
	<path fill="#079247" d="M81.526,68.565V57.626l14.315,14.647l22.332,4.469c0,0,22.789-1.936,23.063-2.52
		c0.275-0.581,13.766-15.075,13.766-15.075l3.47-2.014v10.938l-8.393,9.946c0,0-25.158,5.104-25.433,5.104
		c-0.273,0-21.604-2.826-22.06-3.006c-0.455-0.182-6.654-1.551-9.116-3.466C91.011,74.735,81.526,68.565,81.526,68.565"/>
	<path fill="#079247" d="M92.637,53.015c7.407-4.276,17.239-6.455,27.114-6.519c9.872-0.063,19.788,1.989,27.363,6.168
		c7.573,4.179,11.357,9.771,11.357,15.406c0,5.639-3.784,11.321-11.357,15.696c-7.541,4.353-17.402,6.577-27.234,6.659
		c-9.916,0.085-19.804-2.015-27.243-6.311c-7.407-4.274-11.111-9.912-11.111-15.551S85.229,57.292,92.637,53.015"/>
	<path fill="#3DB54A" d="M92.637,42.075c7.407-4.276,17.239-6.454,27.114-6.519c9.872-0.061,19.788,1.989,27.363,6.168
		c7.573,4.181,11.357,9.77,11.357,15.408s-3.784,11.321-11.357,15.693c-7.541,4.355-17.402,6.578-27.234,6.661
		c-9.916,0.082-19.804-2.015-27.243-6.311c-7.407-4.275-11.111-9.914-11.111-15.55C81.525,51.988,85.229,46.35,92.637,42.075"/>
	<path fill="#F79421" d="M98.169,40.726c5.909-3.413,13.753-5.151,21.631-5.2c7.879-0.05,15.789,1.585,21.833,4.92
		c6.044,3.335,9.063,7.794,9.063,12.295c0,4.496-3.019,9.032-9.063,12.521c-6.018,3.473-13.884,5.25-21.729,5.314
		c-7.912,0.063-15.801-1.608-21.735-5.036c-5.909-3.412-8.865-7.91-8.865-12.407C89.304,48.636,92.26,44.139,98.169,40.726"/>
	<path fill="#F79421" d="M89.304,42.849l0.014,10.731l25.302,11.236l30.171-6.671l5.905-5.408V41.798l-16.835,8.963
		c0,0-30.816-1.549-32.732-2.644C99.213,47.025,89.304,42.849,89.304,42.849"/>
	<path fill="#FBB03C" d="M98.169,29.786c5.909-3.413,13.753-5.15,21.631-5.2c7.879-0.05,15.789,1.585,21.833,4.92
		c6.044,3.334,9.063,7.795,9.063,12.294c0,4.497-3.019,9.032-9.063,12.521c-6.018,3.472-13.884,5.249-21.729,5.313
		c-7.912,0.066-15.801-1.607-21.735-5.034c-5.909-3.413-8.865-7.91-8.865-12.407C89.304,37.696,92.26,33.199,98.169,29.786"/>
	<path fill="#9D1F60" d="M104.606,29.256c4.168-2.406,9.697-3.631,15.253-3.667c5.556-0.036,11.134,1.119,15.395,3.471
		c4.262,2.352,6.393,5.496,6.393,8.667c0,3.172-2.131,6.369-6.393,8.83c-4.243,2.45-9.79,3.703-15.32,3.749
		c-5.58,0.046-11.143-1.135-15.327-3.551c-4.168-2.407-6.25-5.578-6.25-8.749S100.438,31.663,104.606,29.256"/>
	<polygon fill="#9D1F60" points="98.356,38.005 98.356,26.043 141.572,27.772 141.646,37.727 	"/>
	<path fill="#EA548D" d="M104.606,18.317c4.168-2.407,9.697-3.63,15.253-3.667s11.134,1.118,15.395,3.47
		c4.262,2.351,6.393,5.496,6.393,8.667c0,3.172-2.131,6.37-6.393,8.83c-4.243,2.451-9.79,3.703-15.32,3.748
		c-5.58,0.046-11.143-1.135-15.327-3.551c-4.168-2.405-6.25-5.577-6.25-8.749C98.356,23.895,100.438,20.723,104.606,18.317"/>
	<path fill="#9D1F60" d="M113.251,23.198c1.826-1.055,4.252-1.593,6.688-1.608c2.437-0.016,4.881,0.49,6.751,1.521
		c1.866,1.031,2.801,2.411,2.801,3.801c0,1.39-0.935,2.792-2.801,3.872c-1.859,1.073-4.295,1.621-6.72,1.641
		c-2.446,0.022-4.884-0.498-6.719-1.556c-1.828-1.054-2.74-2.446-2.74-3.836S111.423,24.251,113.251,23.198"/>
	<path fill="#C8B299" d="M114.028,23.011c1.615-0.932,3.763-1.407,5.916-1.422c2.155-0.014,4.32,0.434,5.972,1.347
		c1.655,0.913,2.481,2.131,2.481,3.36c0,1.232-0.826,2.473-2.481,3.427c-1.646,0.951-3.796,1.436-5.943,1.454
		c-2.164,0.018-4.321-0.441-5.944-1.377c-1.616-0.934-2.425-2.163-2.425-3.396C111.604,25.174,112.412,23.944,114.028,23.011"/>
	<polygon fill="#C8B299" points="111.604,26.406 113.381,15.735 126.618,15.652 128.396,26.297 	"/>
	<path fill="#E3CBB1" d="M115.293,13.06c1.273-0.735,2.965-1.111,4.664-1.121c1.698-0.012,3.405,0.341,4.708,1.06
		c1.304,0.72,1.954,1.683,1.954,2.65c0,0.97-0.65,1.949-1.954,2.7c-1.299,0.749-2.994,1.132-4.686,1.146
		c-1.706,0.014-3.406-0.348-4.687-1.087c-1.274-0.735-1.912-1.705-1.912-2.674C113.381,14.765,114.019,13.795,115.293,13.06"/>
</g>
</svg>
