<?xml version="1.0" encoding="utf-8"?>
<!-- Generator: Adobe Illustrator 16.0.0, SVG Export Plug-In . SVG Version: 6.00 Build 0)  -->
<!DOCTYPE svg PUBLIC "-//W3C//DTD SVG 1.1//EN" "http://www.w3.org/Graphics/SVG/1.1/DTD/svg11.dtd">
<svg version="1.1" id="Layer_1" xmlns="http://www.w3.org/2000/svg" xmlns:xlink="http://www.w3.org/1999/xlink" x="0px" y="0px"
	 width="240px" height="120px" viewBox="0 0 240 120" enable-background="new 0 0 240 120" xml:space="preserve">
<g>
	<defs>
		<rect id="SVGID_1_" x="71.984" y="10.703" width="96.031" height="98.594"/>
	</defs>
	<clipPath id="SVGID_2_">
		<use xlink:href="#SVGID_1_"  overflow="visible"/>
	</clipPath>
	<path clip-path="url(#SVGID_2_)" fill="#00A99D" d="M149.262,69.172l0.029,0.025l-0.063-0.418
		c-0.014-0.099-0.026-0.196-0.042-0.295l-0.406-2.692l-0.005,0.003c-2.095-13.354-10.986-29.753-25.267-29.753
		c-23.014,0-23.555,21.176-23.147,27.908l0,0l0.002,0.033c0.005,0.072,0.01,0.134,0.016,0.203l0.186,2.719l0.01,0.004
		c0.011,0.131,0.044,0.258,0.073,0.389c0,0.015-0.006,0.022-0.004,0.037c0.192,2.11,1.013,3.304,1.013,3.304
		s10.955,14.633,31.633,11.686c3.999-0.303,6.939-1.343,8.837-2.438c4.799-2.773,7.2-6.376,7.2-9.949
		C149.325,69.678,149.285,69.427,149.262,69.172"/>
	<path clip-path="url(#SVGID_2_)" fill="#C59C6D" d="M114.363,41.828c0,0,1.602,13.305,4.842,21.281c0,0,6.596-16.146,12.146-21.281
		H114.363z"/>
	<path clip-path="url(#SVGID_2_)" fill="#A67D52" d="M138.69,25.149c0-7.979-6.467-14.445-14.445-14.445S109.8,17.17,109.8,25.149
		c0,0.32,0.028,0.635,0.048,0.949l-0.015-0.007c0,0-0.531,18.054,9.812,21.669c10.344,3.613,17.811-16.772,17.811-16.772h-0.005
		C138.242,29.201,138.69,27.228,138.69,25.149"/>
	<path clip-path="url(#SVGID_2_)" fill="#C59C6D" d="M134.52,32.529c-0.15-1.038-1.139-1.696-2.396-0.948
		c-0.003,0.002-0.005,0.004-0.009,0.006c0.447-2.327,0.674-4.721,0.674-7.024c0-5.07-4.072-9.881-6.032-13.626
		c-0.815-0.144-1.651-0.232-2.511-0.232c-7.977,0-14.444,6.466-14.444,14.445c0,0.32,0.026,0.635,0.046,0.949l-0.013-0.007
		c0,0-0.438,14.868,7.212,20.32c6.64,1.494,11.128-3.092,13.563-9.445c0.078-0.037,0.166-0.095,0.27-0.179
		C133.307,34.81,134.72,33.895,134.52,32.529"/>
	<path clip-path="url(#SVGID_2_)" fill="#111111" d="M110.205,21.806c9.632-0.34,17.247-4.466,17.247-9.521
		c0-0.429-0.073-0.847-0.181-1.258c-0.975-0.209-1.986-0.324-3.025-0.324C117.421,10.703,111.716,15.442,110.205,21.806"/>
	<path clip-path="url(#SVGID_2_)" fill="#1A1A1A" d="M119.138,17.875c0,5.536,7.729,10.271,18.663,12.205
		c0.562-1.541,0.89-3.195,0.89-4.932c0-7.977-6.467-14.445-14.445-14.445c-0.109,0-0.215,0.015-0.326,0.017
		C120.899,12.778,119.138,15.234,119.138,17.875"/>
	<path clip-path="url(#SVGID_2_)" fill="#1A1A1A" d="M125.421,25.96c0,0,2.246,1.422,2.03,6.21l3.129,0.263
		c0,0,1.02-1.66,1.543-2.953c0.813-2.134,0.088-7.675,0.088-7.675L125.421,25.96z"/>
	<path clip-path="url(#SVGID_2_)" fill="#1A1A1A" d="M120.286,37.537c-0.734-0.589-3.864-1.881-5.107-1.257
		c-1.552-0.77-2.53,0.38-2.7,1.257c-0.146,0.757,0.272,3.948,0.364,5.354c0,0-0.417-5.232,3.041-5.108
		c2.491,0.087,5.847,3.068,5.847,3.068C121.884,39.448,121.061,38.158,120.286,37.537"/>
	<path clip-path="url(#SVGID_2_)" fill="#1A1A1A" d="M113.133,39.555c0,0,5.414,0.563,6.696,0c1.281-0.565,1.83,0.193,1.83,0.193
		s0.936,6.216,0.499,7.124c-0.438,0.91-5.222-0.277-7.492-0.743C113.779,45.327,112.259,44.661,113.133,39.555"/>
	<path clip-path="url(#SVGID_2_)" fill="#FCC498" d="M104.845,53.427l-3.482-0.958c-1.168,4.599-1.152,9.015-1.001,11.481l0,0
		l0.002,0.033c0.003,0.072,0.01,0.134,0.014,0.199l0.186,2.723l0.012,0.004c0.009,0.131,0.043,0.258,0.071,0.386
		c0.002,0.018-0.006,0.025-0.004,0.04c0.194,2.11,1.014,3.304,1.014,3.304s0.646,0.852,1.891,2.093
		C103.539,72.684,101.745,60.013,104.845,53.427"/>
	<path clip-path="url(#SVGID_2_)" fill="#FCD6B2" d="M140.286,60.561c-1.261,0.729-2.909,1.101-4.557,1.115
		c-1.659,0.011-3.312-0.339-4.556-1.058c-0.257-0.146-0.468-0.309-0.672-0.473v22.44c0.916-0.062,1.831-0.124,2.786-0.262
		c3.421-0.259,6.019-1.066,7.9-1.977c0.164-6.241,0.395-16.077,0.358-20.841C141.235,59.886,140.832,60.246,140.286,60.561"/>
	<path clip-path="url(#SVGID_2_)" fill="#FFFFFF" d="M167.95,95.301l0.03,0.025l-0.063-0.415c-0.013-0.098-0.025-0.2-0.043-0.295
		l-0.404-2.692h-0.006c-2.094-13.355-10.986-29.753-25.266-29.753c-23.016,0-23.556,21.179-23.146,27.908v0.003l0.002,0.033
		c0.006,0.069,0.01,0.131,0.015,0.2l0.186,2.722l0.009,0.004c0.012,0.131,0.046,0.258,0.073,0.386c0,0.015-0.005,0.025-0.004,0.04
		c0.192,2.106,1.012,3.301,1.012,3.301s10.955,14.636,31.635,11.688c3.999-0.306,6.939-1.347,8.837-2.442
		c4.798-2.772,7.2-6.375,7.2-9.949C168.016,95.811,167.976,95.556,167.95,95.301"/>
	<path clip-path="url(#SVGID_2_)" fill="#F3F3F3" d="M167.95,95.301l0.03,0.025l-0.063-0.415c-0.013-0.098-0.025-0.2-0.043-0.295
		l-0.404-2.692h-0.006c-1.297-8.269-5.203-17.704-11.377-23.69c0.833,2.977,1.293,6.157,1.293,9.469
		c0,15.048-9.349,27.479-21.484,29.48c4.447,1.437,9.814,2.165,16.083,1.273c3.999-0.306,6.939-1.347,8.837-2.442
		c4.798-2.772,7.2-6.375,7.2-9.949C168.016,95.811,167.976,95.556,167.95,95.301"/>
	<path clip-path="url(#SVGID_2_)" fill="#FCD6B2" d="M133.054,67.957c0,0,1.601,13.308,4.842,21.284c0,0,6.596-16.146,12.146-21.284
		H133.054z"/>
	<path clip-path="url(#SVGID_2_)" fill="#FCD6B2" d="M119.305,82.55c4.21-2.904,7.721-8.246,9.194-14.848
		c0.16-0.721,0.253-1.431,0.36-2.144C122.386,69.66,120.057,76.734,119.305,82.55"/>
	<path clip-path="url(#SVGID_2_)" fill="#FCD6B2" d="M142.196,62.171c-4.688,0-8.43,0.892-11.436,2.344
		c-0.699,1.626-1.281,3.362-1.69,5.203c-2.475,11.089,1.727,21.464,9.385,23.174c7.657,1.707,15.872-5.896,18.347-16.987
		c0.47-2.104,0.695-4.178,0.706-6.175C153.472,65.213,148.337,62.171,142.196,62.171 M167.95,95.301l0.03,0.025l-0.063-0.415
		c-0.013-0.098-0.025-0.2-0.043-0.295l-0.404-2.692h-0.006c-1.071-6.834-3.952-14.437-8.396-20.259
		c-0.377,1.07-0.719,2.165-0.978,3.315c-2.473,11.092,1.729,21.467,9.386,23.177c0.076,0.015,0.152,0.019,0.229,0.033
		c0.189-0.706,0.31-1.416,0.31-2.126C168.014,95.811,167.976,95.556,167.95,95.301"/>
	<path clip-path="url(#SVGID_2_)" fill="#FCC498" d="M142.196,62.171c-4.687,0-8.43,0.888-11.434,2.347
		c-0.453,1.049-0.834,2.166-1.172,3.309c2.532-0.852,5.502-1.347,8.997-1.347c3.616,0,6.88,1.066,9.78,2.856
		c3.268,0.742,6.195,2.358,8.769,4.582c0.215-1.42,0.363-2.828,0.371-4.188C153.472,65.213,148.336,62.171,142.196,62.171
		 M159.067,71.669c-0.355,1.008-0.676,2.041-0.929,3.126c3.621,3.468,6.462,8.122,8.471,13.042
		C165.185,82.179,162.641,76.349,159.067,71.669"/>
	<path clip-path="url(#SVGID_2_)" fill="#FCC498" d="M157.38,51.279c0-7.979-6.466-14.445-14.444-14.445
		c-7.979,0-14.445,6.467-14.445,14.445c0,0.32,0.027,0.635,0.049,0.95l-0.017-0.008c0,0-0.529,18.053,9.813,21.67
		c10.345,3.614,17.812-16.773,17.812-16.773h-0.005C156.931,55.331,157.38,53.357,157.38,51.279"/>
	<path clip-path="url(#SVGID_2_)" fill="#FBB03C" d="M150.042,37.533c0,0,1.271-3.377,8.024-2.563
		c6.754,0.816,7.686,11.656,7.686,11.656s-3.027,3.432-6.929,1.145c0,0-2.032-7.735-6.869-8.784
		C147.12,37.94,150.042,37.533,150.042,37.533"/>
	
		<path clip-path="url(#SVGID_2_)" fill="none" stroke="#F15C27" stroke-width="0.25" stroke-linecap="round" stroke-miterlimit="10" d="
		M135.896,81.636c-2.04,0.204-9.154-3.887-4.203-16.077"/>
	<path clip-path="url(#SVGID_2_)" fill="#FCD6B2" d="M153.21,58.659c-0.151-1.037-1.139-1.696-2.396-0.948
		c-0.004,0.002-0.005,0.004-0.009,0.006c0.447-2.327,0.673-4.72,0.673-7.023c0-5.071-4.072-9.884-6.031-13.626
		c-0.817-0.145-1.652-0.233-2.511-0.233c-7.978,0-14.443,6.467-14.443,14.445c0,0.32,0.025,0.635,0.045,0.95l-0.013-0.008
		c0,0-0.438,14.869,7.213,20.32c6.64,1.496,11.128-3.09,13.563-9.443c0.078-0.04,0.166-0.099,0.27-0.182
		C151.996,60.94,153.41,60.023,153.21,58.659"/>
	<path clip-path="url(#SVGID_2_)" fill="#754D25" d="M153.434,40.647c0,2.023-1.641,3.665-3.664,3.665s-3.663-1.642-3.663-3.665
		s1.64-3.665,3.663-3.665S153.434,38.624,153.434,40.647"/>
	<path clip-path="url(#SVGID_2_)" fill="#F15C27" d="M151.007,62.549c0,0.484-0.394,0.877-0.877,0.877
		c-0.486,0-0.879-0.393-0.879-0.877c0-0.483,0.393-0.877,0.879-0.877C150.613,61.672,151.007,62.065,151.007,62.549"/>
	
		<path clip-path="url(#SVGID_2_)" fill="none" stroke="#F15C27" stroke-width="0.25" stroke-linecap="round" stroke-miterlimit="10" d="
		M138.444,81.629c0,0,16.205,0.789,14.786-16.07"/>
	<path clip-path="url(#SVGID_2_)" fill="#754D25" d="M137.164,83.943L137.164,83.943c-1.154,0-2.097-0.942-2.097-2.097v-0.433
		c0-1.153,0.942-2.096,2.097-2.096c1.153,0,2.096,0.942,2.096,2.096v0.433C139.26,83.001,138.317,83.943,137.164,83.943"/>
	<path clip-path="url(#SVGID_2_)" fill="#FBB03C" d="M144.496,36.921c-0.009-0.001-0.018-0.003-0.027-0.003
		c-0.504-0.054-1.015-0.084-1.533-0.084c-0.109,0-0.215,0.015-0.326,0.017c-0.004,0.002-0.006,0.006-0.009,0.008
		c-5.468,0.127-10.177,3.279-12.515,7.862c-0.002,0-0.004,0-0.006,0c-0.521,0.521-3.921,7.244-3.921,7.244
		c9.816,1.861,12.5,0.246,14.863-0.18c2.881,3.646,7.633,6.939,13.979,8.063c1.899-3.104,2.378-6.834,2.378-8.569
		C157.38,43.83,151.74,37.7,144.496,36.921"/>
	<path clip-path="url(#SVGID_2_)" fill="#F79421" d="M147.327,37.526c0.055,0.432,0.084,0.869,0.084,1.312
		c0,7.25-7.454,13.126-16.65,13.126c-1.514,0-2.972-0.172-4.363-0.47c-0.144,0.287-0.238,0.47-0.238,0.47
		c9.816,1.862,12.5,0.249,14.863-0.179c2.881,3.646,7.633,6.939,13.979,8.062c1.899-3.1,2.38-6.832,2.38-8.567
		C157.382,44.834,153.155,39.386,147.327,37.526"/>
	<polygon clip-path="url(#SVGID_2_)" fill="#FCD6B2" points="128.894,54.317 130.641,48.915 130.641,56.21 	"/>
	<polygon clip-path="url(#SVGID_2_)" fill="#FCD6B2" points="134.184,56.545 134.612,50.883 136.321,57.975 	"/>
	<path clip-path="url(#SVGID_2_)" fill="#3C3F59" d="M120.957,95.752l0.029,0.025l-0.063-0.419
		c-0.014-0.098-0.025-0.196-0.042-0.294l-0.405-2.689h-0.006c-2.094-13.355-10.987-29.753-25.266-29.753
		c-23.015,0-23.555,21.176-23.147,27.908l0,0l0.003,0.032c0.005,0.073,0.009,0.135,0.015,0.204l0.187,2.718l0.009,0.004
		c0.011,0.135,0.045,0.262,0.073,0.39c0,0.015-0.005,0.021-0.003,0.04c0.192,2.106,1.012,3.301,1.012,3.301
		s10.956,14.636,31.633,11.688c4-0.306,6.94-1.347,8.836-2.442c4.8-2.772,7.201-6.375,7.201-9.949
		C121.021,96.262,120.981,96.007,120.957,95.752"/>
	<polygon clip-path="url(#SVGID_2_)" fill="#32344B" points="81.797,89.03 84.311,83.237 78.153,77.582 85.511,67.724 77.48,77.677 
		83.051,83.547 	"/>
	<path clip-path="url(#SVGID_2_)" fill="#FFFFFF" d="M86.059,68.408c0,0,1.602,13.308,4.843,21.281c0,0,6.595-16.146,12.145-21.281
		H86.059z"/>
	<path clip-path="url(#SVGID_2_)" fill="#FCC498" d="M110.386,51.73c0-7.979-6.467-14.446-14.445-14.446
		c-7.978,0-14.445,6.467-14.445,14.446c0,0.32,0.028,0.633,0.048,0.95l-0.015-0.008c0,0-0.531,18.054,9.812,21.667
		c10.344,3.617,17.812-16.772,17.812-16.772h-0.006C109.937,55.78,110.386,53.809,110.386,51.73"/>
	<path clip-path="url(#SVGID_2_)" fill="#FCD6B2" d="M106.215,59.11c-0.151-1.039-1.138-1.696-2.396-0.95
		c-0.004,0.002-0.006,0.004-0.01,0.008c0.447-2.329,0.673-4.72,0.673-7.025c0-5.07-4.071-9.883-6.032-13.625
		c-0.816-0.145-1.652-0.233-2.509-0.233c-7.979,0-14.446,6.467-14.446,14.446c0,0.32,0.026,0.633,0.047,0.95l-0.014-0.008
		c0,0-0.438,14.869,7.212,20.32c6.641,1.492,11.129-3.093,13.563-9.447c0.078-0.036,0.166-0.095,0.269-0.178
		C105.002,61.389,106.415,60.475,106.215,59.11"/>
	<path clip-path="url(#SVGID_2_)" fill="#714724" d="M81.9,48.386c9.631-0.339,17.247-4.466,17.247-9.521
		c0-0.428-0.073-0.846-0.179-1.257c-0.976-0.209-1.988-0.325-3.026-0.325C89.116,37.283,83.411,42.023,81.9,48.386"/>
	<path clip-path="url(#SVGID_2_)" fill="#754D25" d="M90.832,44.455c0,5.536,7.73,10.271,18.664,12.206
		c0.562-1.543,0.891-3.194,0.891-4.933c0-7.976-6.468-14.445-14.445-14.445c-0.11,0-0.217,0.015-0.327,0.017
		C92.595,39.358,90.832,41.815,90.832,44.455"/>
	<path clip-path="url(#SVGID_2_)" fill="#32344B" d="M120.957,95.752l0.029,0.025l-0.063-0.419
		c-0.014-0.098-0.025-0.196-0.042-0.294l-0.405-2.689h-0.006c-1.296-8.269-5.203-17.704-11.378-23.69
		c0.834,2.977,1.295,6.157,1.295,9.469c0,15.048-9.35,27.479-21.487,29.477c4.448,1.441,9.815,2.169,16.083,1.277
		c4-0.306,6.94-1.347,8.836-2.442c4.8-2.772,7.201-6.375,7.201-9.949C121.021,96.262,120.981,96.007,120.957,95.752"/>
	<path clip-path="url(#SVGID_2_)" fill="none" stroke="#010101" stroke-width="0.5" stroke-miterlimit="10" d="M83.507,52.837
		c-1.641-0.946-2.946-0.189-2.899,1.685c0.047,1.874,1.406,4.195,3.017,5.16c1.614,0.964,2.917,0.204,2.899-1.685
		C86.507,56.108,85.149,53.786,83.507,52.837z"/>
	<path clip-path="url(#SVGID_2_)" fill="#010101" d="M91.353,74.831c-0.802-0.462-1.439-0.095-1.417,0.822
		c0.022,0.913,0.686,2.049,1.474,2.519c0.788,0.469,1.426,0.102,1.417-0.822C92.816,76.425,92.153,75.293,91.353,74.831"/>
	<path clip-path="url(#SVGID_2_)" fill="none" stroke="#010101" stroke-width="0.5" stroke-miterlimit="10" d="M92.152,56.672
		c-1.643-0.948-2.946-0.189-2.899,1.686c0.046,1.874,1.404,4.195,3.017,5.16c1.613,0.96,2.917,0.203,2.898-1.686
		C95.152,59.943,93.793,57.622,92.152,56.672z"/>
	
		<line clip-path="url(#SVGID_2_)" fill="none" stroke="#010101" stroke-width="0.5" stroke-linecap="round" stroke-miterlimit="10" x1="103.811" y1="58.168" x2="95.169" y2="60.763"/>
	
		<path clip-path="url(#SVGID_2_)" fill="none" stroke="#010101" stroke-width="0.5" stroke-linecap="round" stroke-miterlimit="10" d="
		M86.525,57.997c0,0,1.343-1.66,2.726,0.669"/>
	<polygon clip-path="url(#SVGID_2_)" fill="#010101" points="96.412,77.822 96.353,83.765 91.236,74.835 	"/>
	<polygon clip-path="url(#SVGID_2_)" fill="#010101" points="86.059,71.847 86.059,77.822 91.234,74.835 	"/>
	<path clip-path="url(#SVGID_2_)" fill="#32344B" d="M93.684,83.452c-3.152,4.705-7.84,17.009-8.793,22.573
		c0.827,0.389,1.699,0.757,2.613,1.099c0.338-2.82,1.012-7.249,1.618-10.233C90.565,89.776,93.707,83.419,93.684,83.452"/>
	<polygon clip-path="url(#SVGID_2_)" fill="#32344B" points="97.564,97.036 97.332,88.299 108.16,84.227 103.812,67.764 
		108.977,84.692 98.786,89.351 	"/>
</g>
</svg>
