<svg width="62" height="70" viewBox="0 0 62 70" fill="none" xmlns="http://www.w3.org/2000/svg">
<path fill-rule="evenodd" clip-rule="evenodd" d="M1.69463 13.8993L0.570309 13.2551L-9.32382e-08 1.47453e-06L1.12432 0.644231L1.69463 13.8993Z" transform="translate(11.9111 56.1006)" fill="#AC222A"/>
<path fill-rule="evenodd" clip-rule="evenodd" d="M1.12432 17.2654L0 16.6051L9.69526 0L10.9205 0.918152L1.12432 17.2654Z" transform="translate(0 45.6318)" fill="#AC222A"/>
<path fill-rule="evenodd" clip-rule="evenodd" d="M1.2247 6.94172L0 6.02358L3.51962 0L4.66024 0.644236L1.2247 6.94172Z" transform="translate(9.69629 39.6084)" fill="#AC222A"/>
<path fill-rule="evenodd" clip-rule="evenodd" d="M12.4165 -1.84317e-07L25.9898 7.7469L14.0785 15.1878L13.5082 29.1032L4.72542 24.046L6.21588e-07 21.3563C5.85467 15.3566 10.1197 8.02067 12.4165 -1.84317e-07V-1.84317e-07Z" transform="translate(36.0098 20.3943)" fill="#EA3E48"/>
<path fill-rule="evenodd" clip-rule="evenodd" d="M25.6965 7.03825L12.4816 29.6669L11.9113 16.4118L-3.88492e-09 22.5482L9.77673 5.94305L13.2312 0C14.1174 2.45041 15.861 4.50674 18.1471 5.79751C20.4331 7.08828 23.1109 7.52836 25.6965 7.03825V7.03825Z" transform="translate(1.125 40.333)" fill="#EA3E48"/>
<path fill-rule="evenodd" clip-rule="evenodd" d="M27.0806 0.0685018C29.0102 -0.148402 30.9632 0.15201 32.7349 0.938217L33.4355 1.29254L37.5092 3.62789C35.8157 2.71175 33.8966 2.28217 31.969 2.38774H31.0891H30.6492C26.8025 3.07565 23.203 4.74075 20.2043 7.21949L19.7318 7.58992L19.2919 8.12142C14.9818 11.8064 11.4253 16.273 8.81445 21.2799L8.50486 21.8758L8.21155 22.4717C5.05955 28.4103 3.69669 35.1177 4.28457 41.7987L4.53002 42.35V42.7L4.88229 43.4C5.93911 46.2 6.712 48.8234 9.15664 50.5925L9.82472 51.0112L5.75108 48.6759C3.60635 47.3823 1.98665 45.3882 1.17231 43.0389C0.960479 42.4429 0.781239 41.8953 0.618293 41.2994L0.504231 40.8324L0.373875 40.3331C-0.831922 33.6492 1.02566 26.6753 3.84461 20.6356L4.13792 20.0397C6.80026 14.5581 10.5713 9.67408 15.2182 5.68944L15.6745 5.33511C18.8916 2.54193 22.8488 0.714779 27.0806 0.0685018ZM30.8284 5.73775C45.8194 15.2241 23.2025 51.9293 8.32562 44.2307L12.3178 47.4519C26.9829 55.3759 50.3656 16.8508 35.6679 7.47718L30.8284 5.73775Z" transform="translate(12.0264)" fill="#D98C0F"/>
<path fill-rule="evenodd" clip-rule="evenodd" d="M27.169 1.05988C25.6028 0.196879 23.7999 -0.152745 22.0199 0.0613171C19.8446 0.318406 17.7501 1.03229 15.8769 2.15507C13.6269 3.46919 11.58 5.09645 9.79899 6.98682C5.83661 11.1872 2.89923 16.2282 1.21175 21.7237C0.441742 24.1926 0.0356382 26.7583 0.00595751 29.3417C-0.0552632 31.5074 0.355988 33.6606 1.21175 35.6552C1.91057 37.2822 3.13155 38.6368 4.68638 39.51C6.24121 40.3832 8.0435 40.7265 9.81528 40.4869C11.9623 40.2183 14.0278 39.5048 15.8769 38.3932C18.1267 37.0789 20.1736 35.4517 21.9547 33.5614C23.9367 31.4755 25.6648 29.1674 27.1038 26.6843C28.5566 24.2061 29.7105 21.5683 30.542 18.8246C31.312 16.3557 31.7181 13.79 31.7478 11.2065C31.7973 9.06791 31.3863 6.94329 30.542 4.97359C29.8615 3.35117 28.6814 1.98181 27.169 1.05988V1.05988Z" transform="translate(18.3408 6.28857)" fill="#FACC4D"/>
<path fill-rule="evenodd" clip-rule="evenodd" d="M0.602898 4.52574L8.70223e-07 4.17141L7.28367 5.5295e-07L7.90286 0.338223L0.602898 4.52574Z" transform="translate(39.0098 17.2053)" fill="#CC8108"/>
<path fill-rule="evenodd" clip-rule="evenodd" d="M0.619195 0.499281L-2.48635e-07 0.161059L0.195536 0.0644232L0.374774 0.0161061L0.554015 -6.14389e-08L0.700666 0.0161061L0.831022 0.0644232L1.45021 0.418752L1.30356 0.354329L1.15691 0.338222L0.993969 0.354329L0.814727 0.418752L0.619195 0.499281Z" transform="translate(46.293 17.0442)" fill="#CC8108"/>
<path fill-rule="evenodd" clip-rule="evenodd" d="M0.945085 10.7426L0.342186 10.4044L0.211829 10.3077L0.130358 10.1789L0.065178 10.0339L0.0162932 9.85677L1.36749e-06 9.6635L0.0162932 9.45412L0.065178 9.21253L2.33012 9.83022e-07L2.94932 0.338222L0.668078 9.55076L0.635488 9.79234L0.619193 10.0178L0.635488 10.2111L0.668078 10.3883L0.733255 10.5332L0.831021 10.6621L0.945085 10.7426Z" transform="translate(27.8965 33.6653)" fill="#CC8108"/>
<path fill-rule="evenodd" clip-rule="evenodd" d="M0.945084 3.09232L0.325891 2.7541L0.21183 2.65746L0.114062 2.52862L0.0488834 2.38366L1.86476e-07 2.2065V2.01323V1.80385L0.0488834 1.56226L0.130357 1.32068L0.228125 1.07909L0.342186 0.853607L0.472542 0.644233L0.619193 0.450962L0.798433 0.289906L0.977673 0.128847L1.17321 4.91511e-07L1.77611 0.354328L1.58057 0.483174L1.40133 0.628127L1.23839 0.805292L1.09174 0.99856L0.945084 1.20794L0.831023 1.43342L0.733255 1.67501L0.668077 1.90049L0.619193 2.14208L0.602899 2.35145L0.619193 2.56083L0.668077 2.73799L0.733255 2.88294L0.814728 3.01179L0.945084 3.09232Z" transform="translate(23.8389 29.3489)" fill="#CC8108"/>
<path fill-rule="evenodd" clip-rule="evenodd" d="M0.602899 4.49353L6.21588e-07 4.1392L7.28367 -5.5295e-07L7.90286 0.338222L0.602899 4.49353Z" transform="translate(25.0117 25.2097)" fill="#CC8108"/>
<path fill-rule="evenodd" clip-rule="evenodd" d="M0.619194 11.2741L-4.9727e-07 10.9359L2.24865 1.72332L2.31383 1.48174L2.41159 1.25626L2.52566 1.03077L2.67231 0.805291L2.81896 0.612021L2.9819 0.450964L3.16114 0.289905L3.35668 0.177165L3.55221 0.080529L3.73145 0.0322119L3.8944 -4.91511e-07L4.04105 0.0322119L4.1877 0.080529L4.7906 0.434858L4.66024 0.370434L4.4973 0.354328L4.33435 0.370434L4.15511 0.418751L3.97587 0.515387L3.78034 0.644234L3.6011 0.789186L3.43815 0.96635L3.27521 1.15962L3.14485 1.369L3.03079 1.59448L2.93302 1.83606L2.85155 2.07765L0.619194 11.2741Z" transform="translate(32.2959 14.2739)" fill="#CC8108"/>
<path fill-rule="evenodd" clip-rule="evenodd" d="M12.9023 0.494771L15.1346 7.13037L22.4346 2.95896C22.956 2.66906 23.3797 2.7818 23.5426 3.24887C23.605 3.54922 23.5994 3.8595 23.5262 4.15745C23.4529 4.45541 23.3139 4.73364 23.119 4.97219L17.204 13.2345L19.5179 19.8701C19.5803 20.1704 19.5747 20.4807 19.5014 20.7787C19.4282 21.0766 19.2891 21.3549 19.0942 21.5934C18.6868 22.1732 18.1328 22.4792 17.7255 22.3665L11.8268 20.7559L5.9282 29.0343C5.52084 29.6141 4.96682 29.9201 4.55946 29.8235C4.1521 29.7269 3.97286 29.2276 4.1358 28.5672L6.40075 19.3547L0.485821 17.8407C0.0621627 17.728 -0.100782 17.2448 0.0621639 16.6006C0.129967 16.2731 0.262807 15.9621 0.452998 15.6856C0.643189 15.4092 0.886955 15.1727 1.17019 14.99L8.47015 10.8347L10.7188 1.62218C10.7866 1.29465 10.9194 0.983664 11.1096 0.707211C11.2998 0.430757 11.5436 0.194326 11.8268 0.0115969C12.2994 -0.0206147 12.7393 -0.020616 12.9023 0.494771Z" transform="translate(24.4775 14.5845)" fill="#F0B11D"/>
<path fill-rule="evenodd" clip-rule="evenodd" d="M19.542 2.65348C21.8227 1.2816 24.3718 0.403313 27.0212 0.0765459C29.2171 -0.188804 31.4416 0.239674 33.3761 1.30059C35.2738 2.42742 36.7625 4.11865 37.6289 6.13234C38.6582 8.5573 39.1579 11.1697 39.0954 13.7987C39.0739 16.9803 38.591 20.1423 37.6615 23.1884C36.6265 26.5612 35.1994 29.804 33.4086 32.8519C30.1261 38.7726 25.3632 43.7631 19.5746 47.3472C17.2944 48.7204 14.745 49.5988 12.0954 49.9241C9.89937 50.1917 7.67414 49.7631 5.74048 48.7C3.84124 47.5749 2.35216 45.8832 1.4876 43.8683C0.450033 41.4397 -0.0553256 38.8214 0.00480029 36.1858C0.0259797 32.9649 0.519964 29.7641 1.47131 26.6834C3.55072 19.9166 7.17431 13.7122 12.0628 8.54821C14.2531 6.21684 16.7721 4.2098 19.542 2.58906V2.65348ZM30.7689 5.7458C29.2035 4.88068 27.3999 4.53092 25.6198 4.74724C23.4665 5.01083 21.3946 5.72457 19.542 6.84099C17.2928 8.15621 15.246 9.78335 13.4641 11.6727C9.49752 15.8666 6.55456 20.902 4.86058 26.3935C4.09145 28.8626 3.68536 31.4282 3.65478 34.0115C3.6049 36.1554 4.01588 38.2853 4.86058 40.2606C5.55939 41.8876 6.78037 43.2422 8.3352 44.1154C9.89003 44.9886 11.6923 45.3319 13.4641 45.0923C15.6169 44.8264 17.6883 44.1128 19.542 42.9986C21.7922 41.6848 23.8391 40.0575 25.6198 38.1668C27.5992 36.0787 29.3271 33.7709 30.7689 31.2896C32.2218 28.8209 33.381 26.1943 34.2234 23.4622C34.9927 20.9931 35.3988 18.4275 35.4292 15.8442C35.479 13.7003 35.0681 11.5703 34.2234 9.59509C33.5072 7.98668 32.2991 6.64052 30.7689 5.7458V5.7458Z" transform="translate(16.1104 2.37598)" fill="#F0B11D"/>
<path fill-rule="evenodd" clip-rule="evenodd" d="M4.08993 7.42479L2.48635e-07 5.10555L0.325893 4.84785L0.798433 4.49353L1.28727 4.1392L1.75981 3.80098L2.24865 3.47886L2.73749 3.17285L3.22632 2.86684L3.71516 2.57693L4.22029 2.30313L4.70913 2.02933L5.19796 1.80385L5.6868 1.56227L6.17564 1.35289L6.64818 1.15962L7.12072 0.982456L7.59326 0.805291L8.04951 0.644233L8.52205 0.515386L8.9783 0.38654L9.43455 0.273799L9.89079 0.19327L10.3307 0.112741L10.7707 0.0483175L11.1781 -1.07998e-09L15.268 2.33535L14.8443 2.38366L14.4044 2.43198L13.9644 2.51251L13.5082 2.60914L13.0519 2.72189L12.5957 2.85073L12.1394 2.97958L11.6669 3.14064L11.1944 3.30169L10.7218 3.47886L10.2493 3.68823L9.76044 3.89761L9.2879 4.12309L8.78276 4.36468L8.29393 4.62237L7.80509 4.91228L7.29996 5.18608L6.81112 5.49209L6.32229 5.8142L5.84975 6.13632L5.36091 6.47454L4.88837 6.81277L4.41582 7.1832L4.08993 7.42479Z" transform="translate(27.8477 0.116699)" fill="#F0BE33"/>
<path fill-rule="evenodd" clip-rule="evenodd" d="M0.439953 20.7604L4.51359 23.0958L4.46471 22.8542L4.38324 22.3549L4.30176 21.8556L4.23659 21.3563L4.1877 20.8409L4.13882 20.3094L4.10623 19.7619L4.08993 19.2143V18.6506V18.0868L4.10623 17.507L4.13882 16.9433L4.1877 16.3635L4.23659 15.7837L4.30176 15.1878L4.38324 14.608L4.46471 14.0121L4.57877 13.4323L4.67654 12.8363L4.80689 12.2404L4.93725 11.6606L5.0839 11.0486L5.23055 10.4527L5.3935 9.87287L5.57274 9.27696L5.75198 8.64883L5.96381 8.03681L6.17564 7.42479L6.40376 6.79666L6.63188 6.18464L6.8763 5.57262L7.12072 4.96059L7.39773 4.34857L7.65844 3.75266L7.93545 3.14064L8.22875 2.54472L8.34281 2.31924L4.25288 -4.30072e-07L4.15511 0.209376L3.86181 0.821397L3.5848 1.41731L3.30779 2.02933L3.04708 2.64136L2.78637 3.23727L2.54195 3.8654L2.31383 4.47742L2.0857 5.08944L1.87387 5.70146L1.67834 6.32959L1.4828 6.94161L1.31986 7.53753L1.14062 8.13344L0.993968 8.72936L0.847317 9.32527L0.71696 9.92119L0.602898 10.501L0.488837 11.0969L0.39107 11.6928L0.293302 12.2887L0.228124 12.8686L0.162945 13.4484L0.0977671 14.0282L0.065178 14.608L0.0325889 15.1878L0.0162947 15.7515L-1.86476e-07 16.3152L0.0162947 16.8789L0.0325889 17.4426L0.065178 17.9741L0.0977671 18.5056L0.162945 19.021L0.228124 19.5364L0.293302 20.0357L0.39107 20.5188L0.439953 20.7604Z" transform="translate(12.0088 19.8464)" fill="#C27B08"/>
</svg>
