<svg width="65" height="70" viewBox="0 0 65 70" fill="none" xmlns="http://www.w3.org/2000/svg">
<path fill-rule="evenodd" clip-rule="evenodd" d="M1.17944 51.2786L0.308263 50.418L0.254652 50.3253L0.201041 50.2194L0.160833 50.1134L0.120625 49.9943L0.0804164 49.8751L0.0536109 49.756L0.0268055 49.6236L0.0134027 49.4779L0 49.3455V49.1866L0.0134027 24.6926V24.5337L0.0268055 24.3749L0.0402082 24.2292L0.0536109 24.0703L0.0938191 23.8982L0.120625 23.7393L0.160833 23.5805L0.214444 23.4216L0.268055 23.2627L0.321666 23.1038L0.388679 22.9449L0.455693 22.7861L0.522707 22.6272L0.603123 22.4683L0.683539 22.3227L0.763956 22.1638L0.857775 22.0181L0.951594 21.8725L1.05882 21.7269L1.15264 21.5812L1.25986 21.4488L1.36708 21.3164L1.4743 21.184L1.59493 21.0649L1.71555 20.9457L1.83617 20.8265L1.9568 20.7206L2.07742 20.6147L2.21145 20.5088L2.33208 20.4161L2.4661 20.3367L2.60013 20.2572L37.5411 0.34424L37.6751 0.2648L37.8091 0.21184L37.9297 0.15888L38.0638 0.10592L38.1844 0.0662001L38.3184 0.03972L38.4256 0.01324L38.5463 0H38.6669H38.7741L38.8813 0.01324L38.9886 0.02648L39.0958 0.05296L39.1896 0.0794401L39.2834 0.11916L39.3772 0.17212L40.235 1.01948L40.1412 0.979761L40.0608 0.940041L39.9536 0.900321L39.8463 0.887081L39.7525 0.860601H39.6319H39.5247H39.4174L39.2968 0.873841L39.1762 0.900321L39.0556 0.926801L38.9349 0.966521L38.8009 1.00624L38.6669 1.07244L38.5329 1.1254L38.4122 1.20484L3.47131 21.1046L3.33728 21.184L3.20325 21.2767L3.06923 21.3694L2.9486 21.4621L2.81457 21.568L2.69395 21.6871L2.57333 21.7931L2.4661 21.9122L2.34548 22.0446L2.23826 22.177L2.13103 22.2962L2.02381 22.4418L1.91659 22.5875L1.82277 22.7199L1.72895 22.8787L1.63513 23.0244L1.55472 23.17L1.4609 23.3289L1.39388 23.4878L1.31347 23.6467L1.24645 23.8055L1.19284 23.9512L1.12583 24.1101L1.08562 24.2822L1.03201 24.4411L0.991802 24.5999L0.951594 24.7588L0.924789 24.9177L0.897983 25.0766L0.884581 25.2355V25.3943L0.871178 25.54V50.0472V50.1929L0.884581 50.3385L0.897983 50.4842L0.911386 50.6033L0.938191 50.7357L0.9784 50.8549L1.01861 50.9608L1.07222 51.08L1.12583 51.1727L1.17944 51.2786Z" fill="#34485C"/>
<path fill-rule="evenodd" clip-rule="evenodd" d="M2.61353 20.2506L37.5411 0.350906C38.9752 -0.469975 40.1412 0.205265 40.1412 1.79407V26.2881C40.0915 27.1758 39.8316 28.0396 39.3823 28.81C38.933 29.5803 38.3069 30.2358 37.5545 30.7235L2.61353 50.5835C1.16604 51.4838 -1.91728e-08 50.7821 -1.91728e-08 49.1933V24.6861C0.0526735 23.796 0.316713 22.9307 0.770752 22.1601C1.22479 21.3896 1.85608 20.7354 2.61353 20.2506V20.2506Z" transform="translate(0.858398 0.854004)" fill="#3D566E"/>
<path fill-rule="evenodd" clip-rule="evenodd" d="M1.17944 19.9386L10.3871 14.6426L35.8523 0.157977C36.5091 -0.212743 37.0318 0.0917769 37.0318 0.833218V24.7976C37.0051 25.2019 36.885 25.5948 36.6805 25.946C36.476 26.2972 36.1927 26.5973 35.8523 26.8234L7.11685 43.1218L1.17944 46.498C0.522707 46.8687 7.03002e-08 46.5642 7.03002e-08 45.8228V21.9908C0.0225886 21.5819 0.140855 21.1838 0.345504 20.8277C0.550154 20.4716 0.835611 20.1673 1.17944 19.9386V19.9386Z" transform="translate(2.43945 3.00635)" fill="#9DD6F5"/>
<path fill-rule="evenodd" clip-rule="evenodd" d="M-2.0451e-07 13.6902L24.0177 -4.04053e-07V16.3514L-2.0451e-07 30.0548V13.6902Z" transform="translate(8.92578 12.3396)" fill="#E6EAEB"/>
<path fill-rule="evenodd" clip-rule="evenodd" d="M-2.0451e-07 16.0469L24.0177 2.35672V-5.05066e-08L-2.0451e-07 13.6902V16.0469Z" transform="translate(8.92578 9.98291)" fill="#2980B9"/>
<path fill-rule="evenodd" clip-rule="evenodd" d="M0.58972 0.0735015C0.911386 -0.111859 1.17944 0.0735015 1.17944 0.404502C1.16513 0.605498 1.10457 0.800615 1.00238 0.974992C0.900181 1.14937 0.759045 1.2984 0.58972 1.41074C0.268055 1.5961 3.06764e-07 1.41074 3.06764e-07 1.07974C0.0143092 0.878747 0.0748677 0.683629 0.177063 0.509253C0.279259 0.334876 0.420395 0.185841 0.58972 0.0735015V0.0735015Z" transform="translate(14.4209 26.4065)" fill="#9B59B6"/>
<path fill-rule="evenodd" clip-rule="evenodd" d="M0.58972 0.0735003C0.911386 -0.11186 1.17944 0.0735003 1.17944 0.404501C1.16513 0.605496 1.10457 0.800617 1.00238 0.974993C0.900181 1.14937 0.759045 1.2984 0.58972 1.41074C0.268055 1.5961 3.06764e-07 1.41074 3.06764e-07 1.0665C0.0162826 0.867806 0.077773 0.675308 0.179884 0.503367C0.281996 0.331427 0.422091 0.184484 0.58972 0.0735003V0.0735003Z" transform="translate(14.4209 29.9946)" fill="#FFCB05"/>
<path fill-rule="evenodd" clip-rule="evenodd" d="M0.58972 0.0735023C0.911386 -0.111858 1.17944 0.0735023 1.17944 0.404503C1.16513 0.605498 1.10457 0.800616 1.00238 0.974993C0.900181 1.14937 0.759045 1.2984 0.58972 1.41074C0.268055 1.5961 3.06764e-07 1.41074 3.06764e-07 1.07974C0.0143092 0.878748 0.0748677 0.683627 0.177063 0.509251C0.279259 0.334874 0.420395 0.185841 0.58972 0.0735023V0.0735023Z" transform="translate(14.4209 33.834)" fill="#6699FF"/>
<path fill-rule="evenodd" clip-rule="evenodd" d="M-5.11274e-08 5.21656L9.12726 -3.53546e-07V0.675242L-5.11274e-08 5.87856V5.21656Z" transform="translate(16.8076 20.562)" fill="#9C9C9C"/>
<path fill-rule="evenodd" clip-rule="evenodd" d="M-5.11274e-08 5.62701L9.87782 7.07093e-07V0.675242L-5.11274e-08 6.30225V5.62701Z" transform="translate(16.8076 23.7524)" fill="#9C9C9C"/>
<path fill-rule="evenodd" clip-rule="evenodd" d="M-5.11274e-08 4.4354L7.77359 -3.0304e-07V0.675241L-5.11274e-08 5.09741V4.4354Z" transform="translate(16.8076 28.7837)" fill="#9C9C9C"/>
<path fill-rule="evenodd" clip-rule="evenodd" d="M10.3067 0.54284L9.20293e-07 6.40817V5.86533L10.3067 -8.08106e-07V0.54284Z" transform="translate(40.249 52.1523)" fill="#E6EAEB"/>
<path fill-rule="evenodd" clip-rule="evenodd" d="M63.9043 -6.0608e-07V1.88008L63.8775 1.97276L63.8372 2.07868L63.7836 2.17136L63.73 2.27728L63.663 2.36996L63.596 2.46264L63.5156 2.55532L63.4352 2.648L63.3279 2.72744L63.2341 2.82012L63.1135 2.89956L62.9929 2.979L62.8588 3.05844L27.7839 23.0773L27.6499 23.1435L27.5024 23.2097L27.355 23.2759L27.2076 23.3289L27.0601 23.3951L26.8993 23.4481L26.7251 23.4878L26.5642 23.5275L26.4034 23.5672L26.2292 23.5937L26.0549 23.6202L25.8807 23.6467L25.7065 23.6599L25.5322 23.6731H25.358L25.1837 23.6864L25.0095 23.6731H24.8219L24.6476 23.6599L24.4734 23.6467L24.2992 23.6202L24.1383 23.5937L23.9641 23.5672L23.7899 23.5275L23.629 23.4878L23.4682 23.4481L23.3074 23.3951L23.1599 23.3289L22.9991 23.2759L22.8517 23.2097L22.7176 23.1435L22.5836 23.0641L1.04541 10.7641L0.911386 10.6847L0.790762 10.6053L0.670137 10.5126L0.576318 10.4331L0.469096 10.3405L0.388679 10.261L0.308263 10.1551L0.241249 10.0624L0.174236 9.96973L0.120625 9.87705L0.0804164 9.77113L0.0402082 9.67845L3.19546e-09 9.57253V7.70569L0.0402082 7.79837L0.0804164 7.90429L0.120625 7.99697L0.174236 8.08965L0.241249 8.18233L0.308263 8.28825L0.388679 8.38093L0.469096 8.47361L0.576318 8.55305L0.670137 8.64573L0.790762 8.72517L0.911386 8.80461L1.04541 8.88405L22.5836 21.1973L22.7176 21.2635L22.8517 21.3297L22.9991 21.4091L23.1599 21.4621L23.3074 21.515L23.4682 21.568L23.629 21.6077L23.7899 21.6474L23.9641 21.6871L24.1383 21.7136L24.2992 21.7401L24.4734 21.7666L24.6476 21.7798L24.8219 21.7931L25.0095 21.8063H25.1837H25.358L25.5322 21.7931H25.7065L25.8807 21.7666L26.0549 21.7533L26.2292 21.7136L26.4034 21.6871L26.5642 21.6474L26.7251 21.6077L26.8993 21.568L27.0601 21.515L27.2076 21.4621L27.355 21.4091L27.5024 21.3429L27.6499 21.2635L27.7839 21.1973L62.8588 1.1916L62.9929 1.11216L63.1135 1.03272L63.2341 0.940039L63.3279 0.860602L63.4352 0.767923L63.5156 0.675243L63.596 0.582558L63.663 0.489878L63.73 0.397199L63.7836 0.304519L63.8372 0.198602L63.8775 0.105922L63.9043 -6.0608e-07Z" transform="translate(1.08594 46.3135)" fill="#415A73"/>
<path fill-rule="evenodd" clip-rule="evenodd" d="M1.05598 20.6329L36.1309 0.613952C36.9368 0.210335 37.8276 5.48417e-07 38.7311 5.48417e-07C39.6346 5.48417e-07 40.5254 0.210335 41.3312 0.613952L62.8694 12.9272C63.1786 13.0368 63.4459 13.2381 63.6349 13.5035C63.8239 13.7689 63.9254 14.0855 63.9254 14.41C63.9254 14.7346 63.8239 15.0511 63.6349 15.3166C63.4459 15.582 63.1786 15.7833 62.8694 15.8929L27.7944 35.9251C26.9883 36.3277 26.0976 36.5374 25.1943 36.5374C24.291 36.5374 23.4003 36.3277 22.5942 35.9251L1.05598 23.5986C0.746801 23.489 0.479444 23.2877 0.290439 23.0223C0.101433 22.7568 -1.47195e-08 22.4402 -1.47195e-08 22.1157C-1.47195e-08 21.7912 0.101433 21.4746 0.290439 21.2092C0.479444 20.9438 0.746801 20.7425 1.05598 20.6329V20.6329Z" transform="translate(1.07422 31.5991)" fill="#34485C"/>
<path fill-rule="evenodd" clip-rule="evenodd" d="M7.3581 9.66521L16.9411 4.18384L9.59636 4.04053e-07L-3.06764e-07 5.46813L7.3581 9.66521Z" transform="translate(32.4873 49.5576)" fill="#415A73"/>
<path fill-rule="evenodd" clip-rule="evenodd" d="M0.53098 18.5705L3.29194 16.9949L7.4736 14.5985L11.8429 12.1094L14.0275 10.8648L14.108 10.7589L16.8689 9.18332L21.064 6.78688L25.4199 4.29775L31.1026 1.05395L32.3759 0.325749C32.8062 0.111567 33.2813 1.22082e-06 33.7631 1.22082e-06C34.2449 1.22082e-06 34.72 0.111567 35.1503 0.325749L46.0199 6.53532C46.1903 6.58921 46.339 6.6952 46.4445 6.83798C46.5499 6.98076 46.6068 7.15295 46.6068 7.32972C46.6068 7.50648 46.5499 7.67867 46.4445 7.82145C46.339 7.96423 46.1903 8.07022 46.0199 8.12412L32.5635 15.8298L32.4429 15.9092L14.108 26.3291C13.6777 26.5433 13.2026 26.6549 12.7208 26.6549C12.239 26.6549 11.7639 26.5433 11.3336 26.3291L0.53098 20.1196C0.374245 20.0577 0.239883 19.9508 0.145236 19.8127C0.0505883 19.6747 3.51173e-08 19.5118 3.51173e-08 19.345C3.51173e-08 19.1783 0.0505883 19.0154 0.145236 18.8773C0.239883 18.7392 0.374245 18.6324 0.53098 18.5705V18.5705Z" transform="translate(5.99707 34.3896)" fill="#3D566E"/>
<path fill-rule="evenodd" clip-rule="evenodd" d="M0.199375 1.02317L1.7675 0.136096C1.94372 0.0466549 2.13899 4.09466e-07 2.33711 4.09466e-07C2.53523 4.09466e-07 2.7305 0.0466549 2.90673 0.136096L4.47485 1.03642C4.54267 1.06022 4.60137 1.10418 4.64287 1.16226C4.68438 1.22034 4.70667 1.2897 4.70667 1.3608C4.70667 1.43189 4.68438 1.50125 4.64287 1.55933C4.60137 1.61742 4.54267 1.66137 4.47485 1.68517L2.90673 2.54578C2.7285 2.62844 2.53401 2.6713 2.33711 2.6713C2.14021 2.6713 1.94573 2.62844 1.7675 2.54578L0.199375 1.64546C0.13973 1.61756 0.0893282 1.57352 0.054033 1.51844C0.0187377 1.46336 2.6053e-07 1.3995 2.6053e-07 1.33432C2.6053e-07 1.26913 0.0187377 1.20528 0.054033 1.1502C0.0893282 1.09512 0.13973 1.05107 0.199375 1.02317V1.02317Z" transform="translate(20.3604 50.4141)" fill="#2C3E50"/>
<path fill-rule="evenodd" clip-rule="evenodd" d="M1.79994 0.128655L0.231821 1.02898C0.164 1.05278 0.105304 1.09674 0.0637944 1.15482C0.0222851 1.2129 2.26711e-07 1.28226 2.26711e-07 1.35335C2.26711e-07 1.42445 0.0222851 1.49381 0.0637944 1.55189C0.105304 1.60997 0.164 1.65393 0.231821 1.67773L1.79994 2.57805C1.97617 2.6675 2.17143 2.71415 2.36956 2.71415C2.56768 2.71415 2.76295 2.6675 2.93917 2.57805L4.50729 1.69098C4.57511 1.66718 4.63381 1.62322 4.67532 1.56513C4.71683 1.50705 4.73911 1.4377 4.73911 1.3666C4.73911 1.2955 4.71683 1.22614 4.67532 1.16806C4.63381 1.10998 4.57511 1.06601 4.50729 1.04221L2.95258 0.128655C2.77255 0.0439528 2.57566 -8.88258e-07 2.37626 -8.88258e-07C2.17686 -8.88258e-07 1.97997 0.0439528 1.79994 0.128655V0.128655Z" transform="translate(12.5957 54.8174)" fill="#2C3E50"/>
<path fill-rule="evenodd" clip-rule="evenodd" d="M1.79994 0.125522L0.231821 1.02584C0.164 1.04964 0.105304 1.09361 0.0637946 1.15169C0.0222852 1.20977 3.80093e-07 1.27913 3.80093e-07 1.35023C3.80093e-07 1.42133 0.0222852 1.49068 0.0637946 1.54876C0.105304 1.60685 0.164 1.65081 0.231821 1.67461L1.79994 2.56168C1.97617 2.65112 2.17143 2.69778 2.36956 2.69778C2.56768 2.69778 2.76295 2.65112 2.93917 2.56168L4.50729 1.67461C4.57511 1.65081 4.63381 1.60685 4.67532 1.54876C4.71683 1.49068 4.73911 1.42133 4.73911 1.35023C4.73911 1.27913 4.71683 1.20977 4.67532 1.15169C4.63381 1.09361 4.57511 1.04964 4.50729 1.02584L2.93917 0.125522C2.76094 0.0428549 2.56646 -2.45166e-06 2.36956 -2.45166e-06C2.17266 -2.45166e-06 1.97817 0.0428549 1.79994 0.125522V0.125522Z" transform="translate(16.4551 57.0317)" fill="#2C3E50"/>
<path fill-rule="evenodd" clip-rule="evenodd" d="M2.95258 2.56482L4.5207 1.67774C4.58852 1.65394 4.64722 1.60997 4.68872 1.55189C4.73023 1.49381 4.75252 1.42445 4.75252 1.35335C4.75252 1.28226 4.73023 1.2129 4.68872 1.15482C4.64722 1.09674 4.58852 1.05278 4.5207 1.02898L2.95258 0.128654C2.77255 0.0439526 2.57566 -1.09028e-06 2.37626 -1.09028e-06C2.17686 -1.09028e-06 1.97997 0.0439526 1.79994 0.128654L0.231821 1.02898C0.164 1.05278 0.105304 1.09674 0.0637944 1.15482C0.0222851 1.2129 2.26711e-07 1.28226 2.26711e-07 1.35335C2.26711e-07 1.42445 0.0222851 1.49381 0.0637944 1.55189C0.105304 1.60997 0.164 1.65394 0.231821 1.67774L1.79994 2.57805C1.97895 2.66768 2.17723 2.71327 2.3779 2.71097C2.57858 2.70866 2.77572 2.65853 2.95258 2.56482V2.56482Z" transform="translate(12.5957 50.3953)" fill="#2C3E50"/>
<path fill-rule="evenodd" clip-rule="evenodd" d="M2.96011 2.57063L4.52823 1.68355C4.60105 1.663 4.66511 1.61958 4.71071 1.55986C4.75632 1.50014 4.78099 1.42736 4.78099 1.35255C4.78099 1.27774 4.75632 1.20497 4.71071 1.14525C4.66511 1.08552 4.60105 1.0421 4.52823 1.02155L2.96011 0.134471C2.78357 0.0460688 2.58842 -2.51693e-06 2.39049 -2.51693e-06C2.19256 -2.51693e-06 1.99742 0.0460688 1.82088 0.134471L0.252757 1.03479C0.17994 1.05534 0.115881 1.09876 0.0702752 1.15848C0.0246697 1.21821 6.33265e-07 1.29098 6.33265e-07 1.36579C6.33265e-07 1.4406 0.0246697 1.51337 0.0702752 1.5731C0.115881 1.63282 0.17994 1.67625 0.252757 1.69679L1.82088 2.58387C1.99816 2.67127 2.19399 2.71566 2.39211 2.71336C2.59024 2.71106 2.78495 2.66213 2.96011 2.57063V2.57063Z" transform="translate(16.4463 48.218)" fill="#2C3E50"/>
<path fill-rule="evenodd" clip-rule="evenodd" d="M4.50729 1.67774L2.93917 2.57806C2.76094 2.66072 2.56646 2.70358 2.36956 2.70358C2.17266 2.70358 1.97817 2.66072 1.79994 2.57806L0.231821 1.67774C0.164 1.65394 0.105304 1.60998 0.0637946 1.55189C0.0222853 1.49381 -2.58999e-07 1.42446 -2.58999e-07 1.35336C-2.58999e-07 1.28226 0.0222853 1.2129 0.0637946 1.15482C0.105304 1.09674 0.164 1.05277 0.231821 1.02897L1.79994 0.128657C1.97997 0.0439552 2.17686 1.53606e-06 2.37626 1.53606e-06C2.57566 1.53606e-06 2.77255 0.0439552 2.95258 0.128657L4.5207 1.02897C4.58806 1.05411 4.64588 1.09925 4.68622 1.15817C4.72656 1.21709 4.74743 1.28692 4.74596 1.35803C4.74449 1.42915 4.72076 1.49807 4.67802 1.55532C4.63528 1.61257 4.57564 1.65534 4.50729 1.67774V1.67774Z" transform="translate(8.74805 52.6064)" fill="#2C3E50"/>
<path fill-rule="evenodd" clip-rule="evenodd" d="M0.214444 1.02493L1.78256 0.137849C1.96083 0.0472573 2.15841 1.55537e-06 2.35888 1.55537e-06C2.55935 1.55537e-06 2.75693 0.0472573 2.9352 0.137849L4.50332 1.02493C4.57114 1.04873 4.62984 1.09269 4.67135 1.15078C4.71286 1.20886 4.73514 1.27821 4.73514 1.34931C4.73514 1.42041 4.71286 1.48977 4.67135 1.54785C4.62984 1.60593 4.57114 1.64989 4.50332 1.67369L2.9352 2.56077C2.75897 2.65021 2.56371 2.69687 2.36558 2.69687C2.16746 2.69687 1.97219 2.65021 1.79597 2.56077L0.214444 1.66045C0.150939 1.63431 0.0966874 1.59019 0.0585258 1.53364C0.0203641 1.47709 2.55637e-07 1.41065 2.55637e-07 1.34269C2.55637e-07 1.27473 0.0203641 1.20829 0.0585258 1.15174C0.0966874 1.09519 0.150939 1.05107 0.214444 1.02493V1.02493Z" transform="translate(16.4863 52.6235)" fill="#2C3E50"/>
<path fill-rule="evenodd" clip-rule="evenodd" d="M0.199376 1.02584L1.7675 0.125522C1.94573 0.0428553 2.14021 -2.04761e-06 2.33711 -2.04761e-06C2.53401 -2.04761e-06 2.7285 0.0428553 2.90673 0.125522L4.47485 1.02584C4.54767 1.04639 4.61172 1.08982 4.65733 1.14954C4.70293 1.20926 4.72761 1.28203 4.72761 1.35684C4.72761 1.43165 4.70293 1.50443 4.65733 1.56415C4.61172 1.62388 4.54767 1.6673 4.47485 1.68784L2.90673 2.57493C2.72846 2.66552 2.53088 2.71278 2.33041 2.71278C2.12994 2.71278 1.93236 2.66552 1.75409 2.57493L0.199376 1.64813C0.139731 1.62023 0.0893285 1.57619 0.0540333 1.52111C0.018738 1.46603 -7.10891e-07 1.40217 -7.10891e-07 1.33698C-7.10891e-07 1.2718 0.018738 1.20795 0.0540333 1.15287C0.0893285 1.09779 0.139731 1.05374 0.199376 1.02584V1.02584Z" transform="translate(28.0801 46.0161)" fill="#2C3E50"/>
<path fill-rule="evenodd" clip-rule="evenodd" d="M0.252757 1.03479L1.82088 0.134469C1.99742 0.046066 2.19256 -2.94642e-07 2.39049 -2.94642e-07C2.58842 -2.94642e-07 2.78357 0.046066 2.96011 0.134469L4.52823 1.02155C4.59605 1.04535 4.65475 1.08931 4.69626 1.14739C4.73777 1.20548 4.76005 1.27483 4.76005 1.34593C4.76005 1.41703 4.73777 1.48638 4.69626 1.54447C4.65475 1.60255 4.59605 1.64651 4.52823 1.67031L2.9333 2.58387C2.75504 2.67447 2.55746 2.72173 2.35699 2.72173C2.15651 2.72173 1.95894 2.67447 1.78067 2.58387L0.252757 1.69679C0.17994 1.67624 0.115881 1.63282 0.0702752 1.5731C0.0246696 1.51338 5.82138e-07 1.4406 5.82138e-07 1.36579C5.82138e-07 1.29098 0.0246696 1.21821 0.0702752 1.15849C0.115881 1.09876 0.17994 1.05534 0.252757 1.03479V1.03479Z" transform="translate(31.915 48.2051)" fill="#2C3E50"/>
<path fill-rule="evenodd" clip-rule="evenodd" d="M2.96011 2.61198L4.52823 1.68518C4.59605 1.66138 4.65475 1.61742 4.69626 1.55933C4.73777 1.50125 4.76005 1.4319 4.76005 1.3608C4.76005 1.2897 4.73777 1.22034 4.69626 1.16226C4.65475 1.10418 4.59605 1.06021 4.52823 1.03641L2.96011 0.136098C2.78389 0.0466569 2.58862 2.42973e-06 2.39049 2.42973e-06C2.19237 2.42973e-06 1.9971 0.0466569 1.82088 0.136098L0.252757 1.02318C0.17994 1.04372 0.115881 1.08714 0.0702754 1.14687C0.0246698 1.20659 -4.91537e-07 1.27937 -4.91537e-07 1.35418C-4.91537e-07 1.42899 0.0246698 1.50176 0.0702754 1.56149C0.115881 1.62121 0.17994 1.66463 0.252757 1.68518L1.82088 2.5855C1.99713 2.67233 2.1906 2.71972 2.3875 2.7243C2.58441 2.72888 2.77991 2.69053 2.96011 2.61198Z" transform="translate(20.3076 45.979)" fill="#2C3E50"/>
<path fill-rule="evenodd" clip-rule="evenodd" d="M2.96011 2.5855L4.52823 1.68518C4.59605 1.66138 4.65475 1.61742 4.69626 1.55933C4.73777 1.50125 4.76005 1.4319 4.76005 1.3608C4.76005 1.2897 4.73777 1.22034 4.69626 1.16226C4.65475 1.10418 4.59605 1.06022 4.52823 1.03642L2.96011 0.136097C2.78388 0.0466565 2.58862 2.02568e-06 2.39049 2.02568e-06C2.19237 2.02568e-06 1.9971 0.0466565 1.82088 0.136097L0.252756 1.02318C0.179939 1.04372 0.11588 1.08715 0.0702743 1.14687C0.0246687 1.20659 -3.38155e-07 1.27937 -3.38155e-07 1.35418C-3.38155e-07 1.42899 0.0246687 1.50176 0.0702743 1.56149C0.11588 1.62121 0.179939 1.66463 0.252756 1.68518L1.82088 2.5855C1.99911 2.66816 2.19359 2.71102 2.39049 2.71102C2.58739 2.71102 2.78188 2.66816 2.96011 2.5855V2.5855Z" transform="translate(24.166 43.7546)" fill="#2C3E50"/>
<path fill-rule="evenodd" clip-rule="evenodd" d="M0.259711 1.02317L1.82783 0.136096C2.00406 0.0466551 2.19933 6.11493e-07 2.39745 6.11493e-07C2.59557 6.11493e-07 2.79084 0.0466551 2.96706 0.136096L4.53518 1.03642C4.603 1.06022 4.6617 1.10418 4.70321 1.16226C4.74472 1.22034 4.76701 1.2897 4.76701 1.3608C4.76701 1.43189 4.74472 1.50125 4.70321 1.55933C4.6617 1.61742 4.603 1.66137 4.53518 1.68517L2.96706 2.5855C2.78704 2.6702 2.59015 2.71415 2.39075 2.71415C2.19134 2.71415 1.99445 2.6702 1.81443 2.5855L0.246308 1.68517C0.173866 1.66323 0.11064 1.61856 0.0662066 1.55793C0.021773 1.4973 -0.00144438 1.42402 7.07401e-05 1.34918C0.00158586 1.27434 0.0277496 1.20204 0.0746017 1.14321C0.121454 1.08438 0.186439 1.04224 0.259711 1.02317V1.02317Z" transform="translate(24.1592 48.2163)" fill="#2C3E50"/>
<path fill-rule="evenodd" clip-rule="evenodd" d="M0.231821 5.42153L9.51992 0.125525C9.69815 0.0428577 9.89263 3.76707e-07 10.0895 3.76707e-07C10.2864 3.76707e-07 10.4809 0.0428577 10.6592 0.125525L12.2273 1.02585C12.2951 1.04965 12.3538 1.09361 12.3953 1.15169C12.4368 1.20977 12.4591 1.27913 12.4591 1.35022C12.4591 1.42132 12.4368 1.49068 12.3953 1.54876C12.3538 1.60684 12.2951 1.6508 12.2273 1.6746L2.93917 6.97061C2.76094 7.05328 2.56646 7.09613 2.36956 7.09613C2.17266 7.09613 1.97817 7.05328 1.79994 6.97061L0.231821 6.07029C0.164001 6.04649 0.105304 6.00253 0.0637947 5.94445C0.0222854 5.88636 5.33476e-07 5.81701 5.33476e-07 5.74591C5.33476e-07 5.67481 0.0222854 5.60546 0.0637947 5.54737C0.105304 5.48929 0.164001 5.44533 0.231821 5.42153V5.42153Z" transform="translate(20.3154 50.4248)" fill="#2C3E50"/>
<path fill-rule="evenodd" clip-rule="evenodd" d="M0.246309 1.02493L1.81443 0.137851C1.9927 0.0472593 2.19028 9.49292e-07 2.39075 9.49292e-07C2.59122 9.49292e-07 2.7888 0.0472593 2.96707 0.137851L4.53518 1.03817C4.603 1.06197 4.6617 1.10593 4.70321 1.16402C4.74472 1.2221 4.76701 1.29145 4.76701 1.36255C4.76701 1.43365 4.74472 1.50301 4.70321 1.56109C4.6617 1.61917 4.603 1.66313 4.53518 1.68693L2.96707 2.58725C2.78883 2.66992 2.59435 2.71278 2.39745 2.71278C2.20055 2.71278 2.00607 2.66992 1.82783 2.58725L0.259712 1.68693C0.18644 1.66787 0.121455 1.62573 0.074603 1.5669C0.027751 1.50807 0.00158464 1.43577 6.95131e-05 1.36093C-0.00144561 1.28609 0.0217718 1.21281 0.0662053 1.15218C0.110639 1.09155 0.173867 1.04688 0.246309 1.02493V1.02493Z" transform="translate(40.8604 38.6951)" fill="#2C3E50"/>
<path fill-rule="evenodd" clip-rule="evenodd" d="M0.274101 1.0025L1.84222 0.128655C2.02225 0.0439528 2.21914 -8.88258e-07 2.41854 -8.88258e-07C2.61794 -8.88258e-07 2.81483 0.0439528 2.99486 0.128655L4.56298 1.02898C4.6308 1.05278 4.68949 1.09674 4.731 1.15482C4.77251 1.2129 4.7948 1.28226 4.7948 1.35335C4.7948 1.42445 4.77251 1.49381 4.731 1.55189C4.68949 1.60997 4.6308 1.65393 4.56298 1.67773L2.99486 2.57805C2.81663 2.66072 2.62214 2.70358 2.42524 2.70358C2.22834 2.70358 2.03386 2.66072 1.85562 2.57805L0.287507 1.67773C0.208078 1.66379 0.136004 1.62306 0.0835854 1.56248C0.0311666 1.5019 0.0016503 1.42523 6.8768e-05 1.34555C-0.00151276 1.26588 0.0249396 1.18812 0.0749141 1.12556C0.124889 1.063 0.195286 1.0195 0.274101 1.0025V1.0025Z" transform="translate(44.6924 40.9153)" fill="#2C3E50"/>
<path fill-rule="evenodd" clip-rule="evenodd" d="M2.93917 2.57401L4.5207 1.67369C4.58852 1.64989 4.64722 1.60593 4.68873 1.54785C4.73023 1.48976 4.75252 1.42041 4.75252 1.34931C4.75252 1.27821 4.73023 1.20886 4.68873 1.15078C4.64722 1.09269 4.58852 1.04873 4.5207 1.02493L2.95258 0.137851C2.77431 0.0472592 2.57673 8.48278e-07 2.37626 8.48278e-07C2.17579 8.48278e-07 1.97821 0.0472592 1.79994 0.137851L0.23182 1.02493C0.164 1.04873 0.105304 1.09269 0.0637951 1.15078C0.0222858 1.20886 8.91367e-07 1.27821 8.91367e-07 1.34931C8.91367e-07 1.42041 0.0222858 1.48976 0.0637951 1.54785C0.105304 1.60593 0.164 1.64989 0.23182 1.67369L1.84015 2.57401C2.01116 2.65699 2.19914 2.70013 2.38966 2.70013C2.58018 2.70013 2.76817 2.65699 2.93917 2.57401V2.57401Z" transform="translate(37.0273 36.4839)" fill="#2C3E50"/>
<path fill-rule="evenodd" clip-rule="evenodd" d="M0.268441 1.00831L1.87677 0.134471C2.05331 0.0460682 2.24846 -5.97682e-07 2.44639 -5.97682e-07C2.64431 -5.97682e-07 2.83946 0.0460682 3.016 0.134471L4.58412 1.03479C4.65195 1.05859 4.71064 1.10255 4.75215 1.16064C4.79366 1.21872 4.81595 1.28807 4.81595 1.35917C4.81595 1.43027 4.79366 1.49962 4.75215 1.55771C4.71064 1.61579 4.65195 1.65975 4.58412 1.68355L3.016 2.58387C2.83598 2.66857 2.63909 2.71253 2.43969 2.71253C2.24028 2.71253 2.04339 2.66857 1.86337 2.58387L0.295247 1.68355C0.215347 1.67135 0.142226 1.63209 0.0884113 1.57249C0.0345962 1.51288 0.00343577 1.43665 0.000267647 1.35684C-0.00290047 1.27703 0.0221211 1.19862 0.0710458 1.13504C0.119971 1.07145 0.189753 1.02665 0.268441 1.00831V1.00831Z" transform="translate(36.9922 40.9097)" fill="#2C3E50"/>
<path fill-rule="evenodd" clip-rule="evenodd" d="M0.231821 1.03479L1.79994 0.13447C1.97648 0.0460674 2.17163 1.11954e-06 2.36956 1.11954e-06C2.56749 1.11954e-06 2.76263 0.0460674 2.93917 0.13447L4.50729 1.03479C4.57512 1.05859 4.63381 1.10255 4.67532 1.16063C4.71683 1.21872 4.73912 1.28807 4.73912 1.35917C4.73912 1.43027 4.71683 1.49962 4.67532 1.55771C4.63381 1.61579 4.57512 1.65975 4.50729 1.68355L2.93917 2.58388C2.76094 2.66654 2.56646 2.7094 2.36956 2.7094C2.17266 2.7094 1.97817 2.66654 1.79994 2.58388L0.231821 1.68355C0.164001 1.65975 0.105303 1.61579 0.0637937 1.55771C0.0222843 1.49962 -5.402e-07 1.43027 -5.402e-07 1.35917C-5.402e-07 1.28807 0.0222843 1.21872 0.0637937 1.16063C0.105303 1.10255 0.164001 1.05859 0.231821 1.03479V1.03479Z" transform="translate(40.875 43.0811)" fill="#2C3E50"/>
<path fill-rule="evenodd" clip-rule="evenodd" d="M2.99278 2.53521L4.56091 1.64813C4.62873 1.62433 4.68742 1.58036 4.72893 1.52228C4.77044 1.4642 4.79273 1.39485 4.79273 1.32375C4.79273 1.25265 4.77044 1.18329 4.72893 1.12521C4.68742 1.06713 4.62873 1.02317 4.56091 0.999365L2.99278 0.125524C2.81455 0.0428573 2.62007 -2.73461e-08 2.42317 -2.73461e-08C2.22627 -2.73461e-08 2.03178 0.0428573 1.85355 0.125524L0.231821 0.999365C0.164001 1.02317 0.105303 1.06713 0.0637936 1.12521C0.0222842 1.18329 -6.42454e-07 1.25265 -6.42454e-07 1.32375C-6.42454e-07 1.39485 0.0222842 1.4642 0.0637936 1.52228C0.105303 1.58036 0.164001 1.62433 0.231821 1.64813L1.79994 2.54845C1.9844 2.64377 2.18989 2.69244 2.39805 2.69013C2.60621 2.68782 2.81054 2.63459 2.99278 2.53521V2.53521Z" transform="translate(29.2549 40.9185)" fill="#2C3E50"/>
<path fill-rule="evenodd" clip-rule="evenodd" d="M2.95258 2.55902L4.5207 1.67194C4.58852 1.64814 4.64721 1.60417 4.68872 1.54609C4.73023 1.48801 4.75252 1.41866 4.75252 1.34756C4.75252 1.27646 4.73023 1.2071 4.68872 1.14902C4.64721 1.09094 4.58852 1.04698 4.5207 1.02318L2.95258 0.136095C2.77635 0.0466544 2.58108 -9.56004e-08 2.38296 -9.56004e-08C2.18484 -9.56004e-08 1.98957 0.0466544 1.81334 0.136095L0.231821 1.02318C0.164001 1.04698 0.105305 1.09094 0.0637959 1.14902C0.0222866 1.2071 -8.46964e-07 1.27646 -8.46964e-07 1.34756C-8.46964e-07 1.41866 0.0222866 1.48801 0.0637959 1.54609C0.105305 1.60417 0.164001 1.64814 0.231821 1.67194L1.79994 2.55902C1.97821 2.64961 2.17579 2.69687 2.37626 2.69687C2.57673 2.69687 2.77431 2.64961 2.95258 2.55902V2.55902Z" transform="translate(33.1553 38.6968)" fill="#2C3E50"/>
<path fill-rule="evenodd" clip-rule="evenodd" d="M0.246309 1.02493L1.81443 0.137853C1.9927 0.0472614 2.19027 5.45239e-07 2.39075 5.45239e-07C2.59122 5.45239e-07 2.7888 0.0472614 2.96707 0.137853L4.53519 1.03817C4.60301 1.06197 4.6617 1.10593 4.70321 1.16402C4.74472 1.2221 4.767 1.29145 4.767 1.36255C4.767 1.43365 4.74472 1.50301 4.70321 1.56109C4.6617 1.61917 4.60301 1.66313 4.53519 1.68693L2.96707 2.58725C2.78883 2.66992 2.59435 2.71278 2.39745 2.71278C2.20055 2.71278 2.00607 2.66992 1.82783 2.58725L0.259712 1.68693C0.18644 1.66787 0.121455 1.62573 0.0746027 1.5669C0.0277507 1.50808 0.00158433 1.43577 6.92063e-05 1.36093C-0.00144592 1.2861 0.0217715 1.21281 0.066205 1.15218C0.110639 1.09155 0.173867 1.04688 0.246309 1.02493V1.02493Z" transform="translate(33.1406 43.0908)" fill="#2C3E50"/>
<path fill-rule="evenodd" clip-rule="evenodd" d="M0.225338 1.04222L1.84707 0.128656C2.02709 0.0439546 2.22398 9.29981e-07 2.42339 9.29981e-07C2.62279 9.29981e-07 2.81968 0.0439546 2.9997 0.128656L4.52762 1.04222C4.59544 1.06602 4.65413 1.10998 4.69564 1.16806C4.73715 1.22614 4.75944 1.2955 4.75944 1.36659C4.75944 1.43769 4.73715 1.50705 4.69564 1.56513C4.65413 1.62321 4.59544 1.66718 4.52762 1.69098L2.9595 2.59129C2.77947 2.676 2.58258 2.71995 2.38318 2.71995C2.18377 2.71995 1.98688 2.676 1.80686 2.59129L0.238738 1.69098C0.170394 1.66858 0.110754 1.62581 0.0680164 1.56856C0.0252784 1.51131 0.00154247 1.44239 7.32309e-05 1.37127C-0.00139601 1.30015 0.0194724 1.23033 0.0598105 1.17141C0.100149 1.11248 0.157976 1.06735 0.225338 1.04222V1.04222Z" transform="translate(37.0205 45.2979)" fill="#2C3E50"/>
<path fill-rule="evenodd" clip-rule="evenodd" d="M0.341835 0.998454L1.90995 0.137851C2.08822 0.0472594 2.2858 -1.47503e-06 2.48627 -1.47503e-06C2.68674 -1.47503e-06 2.88432 0.0472594 3.06259 0.137851L4.63071 1.03817C4.69853 1.06197 4.75723 1.10593 4.79874 1.16402C4.84025 1.2221 4.86253 1.29145 4.86253 1.36255C4.86253 1.43365 4.84025 1.50301 4.79874 1.56109C4.75723 1.61917 4.69853 1.66313 4.63071 1.68693L3.06259 2.58725C2.88436 2.66992 2.68988 2.71278 2.49297 2.71278C2.29607 2.71278 2.10159 2.66992 1.92336 2.58725L0.355237 1.68693C0.262816 1.68869 0.173475 1.6541 0.106867 1.59079C0.0402597 1.52747 0.00184223 1.44061 6.492e-05 1.34931C-0.00171239 1.25802 0.0332967 1.16976 0.097391 1.10396C0.161485 1.03816 0.249415 1.00021 0.341835 0.998454V0.998454Z" transform="translate(20.1787 50.1743)" fill="#E6EAEB"/>
<path fill-rule="evenodd" clip-rule="evenodd" d="M1.81334 0.112691L0.231821 1.02625C0.164001 1.05005 0.105304 1.09401 0.0637948 1.15209C0.0222855 1.21017 5.84603e-07 1.27953 5.84603e-07 1.35063C5.84603e-07 1.42173 0.0222855 1.49108 0.0637948 1.54917C0.105304 1.60725 0.164001 1.65121 0.231821 1.67501L1.79994 2.57533C1.97821 2.66592 2.17579 2.71318 2.37626 2.71318C2.57673 2.71318 2.77431 2.66592 2.95258 2.57533L4.5207 1.68825C4.58852 1.66445 4.64721 1.62049 4.68872 1.56241C4.73023 1.50433 4.75252 1.43497 4.75252 1.36387C4.75252 1.29277 4.73023 1.22342 4.68872 1.16534C4.64721 1.10725 4.58852 1.06329 4.5207 1.03949L2.95258 0.139171C2.77632 0.0523372 2.58286 0.00494075 2.38595 0.000363937C2.18905 -0.00421287 1.99354 0.0341419 1.81334 0.112691Z" transform="translate(12.5547 54.5818)" fill="#E6EAEB"/>
<path fill-rule="evenodd" clip-rule="evenodd" d="M1.79994 0.136095L0.231822 1.02317C0.164001 1.04697 0.105305 1.09094 0.0637952 1.14902C0.0222859 1.2071 -2.33435e-07 1.27646 -2.33435e-07 1.34756C-2.33435e-07 1.41866 0.0222859 1.48801 0.0637952 1.54609C0.105305 1.60418 0.164001 1.64814 0.231822 1.67194L1.79994 2.55902C1.97997 2.64372 2.17686 2.68767 2.37626 2.68767C2.57566 2.68767 2.77255 2.64372 2.95258 2.55902L4.5207 1.6587C4.58852 1.6349 4.64721 1.59093 4.68872 1.53285C4.73023 1.47477 4.75252 1.40541 4.75252 1.33431C4.75252 1.26322 4.73023 1.19386 4.68872 1.13578C4.64721 1.0777 4.58852 1.03374 4.5207 1.00994L2.93917 0.136095C2.76295 0.0466545 2.56768 5.41289e-09 2.36956 5.41289e-09C2.17143 5.41289e-09 1.97617 0.0466545 1.79994 0.136095V0.136095Z" transform="translate(16.4268 56.7959)" fill="#E6EAEB"/>
<path fill-rule="evenodd" clip-rule="evenodd" d="M2.93917 2.53521L4.50729 1.64813C4.58011 1.62758 4.64417 1.58416 4.68978 1.52443C4.73538 1.46471 4.76005 1.39194 4.76005 1.31713C4.76005 1.24232 4.73538 1.16954 4.68978 1.10982C4.64417 1.05009 4.58011 1.00668 4.50729 0.986127L2.93917 0.125524C2.76094 0.0428573 2.56646 -2.73461e-08 2.36956 -2.73461e-08C2.17266 -2.73461e-08 1.97818 0.0428573 1.79994 0.125524L0.231821 1.02585C0.164001 1.04965 0.105304 1.09361 0.0637951 1.15169C0.0222858 1.20977 -3.86817e-07 1.27913 -3.86817e-07 1.35022C-3.86817e-07 1.42132 0.0222858 1.49068 0.0637951 1.54876C0.105304 1.60684 0.164001 1.6508 0.231821 1.6746L1.79994 2.57492C1.97963 2.65723 2.17643 2.69653 2.37437 2.68963C2.57231 2.68273 2.76581 2.62982 2.93917 2.53521Z" transform="translate(12.5684 50.1865)" fill="#E6EAEB"/>
<path fill-rule="evenodd" clip-rule="evenodd" d="M2.96011 2.57401L4.52823 1.68694C4.60105 1.66639 4.66511 1.62296 4.71071 1.56324C4.75632 1.50352 4.78099 1.43074 4.78099 1.35593C4.78099 1.28112 4.75632 1.20835 4.71071 1.14863C4.66511 1.0889 4.60105 1.04548 4.52823 1.02493L2.96011 0.137851C2.78184 0.047259 2.58426 -1.87908e-06 2.38379 -1.87908e-06C2.18332 -1.87908e-06 1.98574 0.047259 1.80747 0.137851L0.252757 1.03817C0.17994 1.05872 0.115881 1.10214 0.0702756 1.16186C0.02467 1.22159 -2.87028e-07 1.29436 -2.87028e-07 1.36917C-2.87028e-07 1.44398 0.02467 1.51676 0.0702756 1.57648C0.115881 1.63621 0.17994 1.67962 0.252757 1.70017L1.82088 2.58725C1.99817 2.67465 2.19399 2.71904 2.39211 2.71674C2.59024 2.71444 2.78495 2.66551 2.96011 2.57401V2.57401Z" transform="translate(16.4062 47.9497)" fill="#E6EAEB"/>
<path fill-rule="evenodd" clip-rule="evenodd" d="M4.5207 1.67461L2.95258 2.57493C2.77255 2.65963 2.57566 2.70358 2.37626 2.70358C2.17686 2.70358 1.97997 2.65963 1.79994 2.57493L0.231821 1.67461C0.164001 1.65081 0.105304 1.60684 0.0637946 1.54876C0.0222853 1.49068 -2.07872e-07 1.42132 -2.07872e-07 1.35022C-2.07872e-07 1.27912 0.0222853 1.20977 0.0637946 1.15169C0.105304 1.0936 0.164001 1.04964 0.231821 1.02584L1.79994 0.125523C1.97817 0.0428565 2.17266 -8.35452e-07 2.36956 -8.35452e-07C2.56646 -8.35452e-07 2.76094 0.0428565 2.93917 0.125523L4.50729 1.02584C4.57564 1.04824 4.63528 1.09101 4.67802 1.14826C4.72076 1.20551 4.74449 1.27443 4.74596 1.34555C4.74743 1.41667 4.72656 1.48649 4.68622 1.54541C4.64588 1.60434 4.58806 1.64947 4.5207 1.67461V1.67461Z" transform="translate(8.69531 52.3579)" fill="#E6EAEB"/>
<path fill-rule="evenodd" clip-rule="evenodd" d="M0.23874 1.02318L1.80686 0.136097C1.98308 0.0466565 2.17835 2.02568e-06 2.37648 2.02568e-06C2.5746 2.02568e-06 2.76987 0.0466565 2.94609 0.136097L4.51421 1.02318C4.58203 1.04698 4.64073 1.09094 4.68224 1.14902C4.72375 1.2071 4.74603 1.27646 4.74603 1.34755C4.74603 1.41865 4.72375 1.48801 4.68224 1.54609C4.64073 1.60417 4.58203 1.64814 4.51421 1.67194L2.94609 2.57226C2.76607 2.65696 2.56918 2.70091 2.36978 2.70091C2.17037 2.70091 1.97348 2.65696 1.79346 2.57226L0.225337 1.67194C0.157975 1.6468 0.100149 1.60167 0.0598106 1.54274C0.0194726 1.48382 -0.00139713 1.414 7.21061e-05 1.34288C0.00154134 1.27176 0.0252772 1.20284 0.0680153 1.14559C0.110753 1.08834 0.170396 1.04558 0.23874 1.02318V1.02318Z" transform="translate(16.4209 52.3606)" fill="#E6EAEB"/>
<path fill-rule="evenodd" clip-rule="evenodd" d="M0.225336 1.02898L1.79346 0.128657C1.97348 0.0439548 2.17037 1.13201e-06 2.36977 1.13201e-06C2.56918 1.13201e-06 2.76607 0.0439548 2.94609 0.128657L4.51421 1.02898C4.58703 1.04953 4.65109 1.09295 4.69669 1.15267C4.7423 1.21239 4.76697 1.28517 4.76697 1.35998C4.76697 1.43479 4.7423 1.50756 4.69669 1.56728C4.65109 1.62701 4.58703 1.67043 4.51421 1.69098L2.94609 2.57806C2.76987 2.6675 2.5746 2.71415 2.37647 2.71415C2.17835 2.71415 1.98308 2.6675 1.80686 2.57806L0.238739 1.67774C0.170395 1.65534 0.110753 1.61257 0.0680148 1.55532C0.0252767 1.49807 0.00154083 1.42915 7.15948e-05 1.35803C-0.00139764 1.28692 0.0194734 1.21709 0.0598114 1.15817C0.100149 1.09924 0.157974 1.05411 0.225336 1.02898V1.02898Z" transform="translate(28.0156 45.748)" fill="#E6EAEB"/>
<path fill-rule="evenodd" clip-rule="evenodd" d="M0.213679 1.02493L1.7818 0.137854C1.96007 0.0472618 2.15764 9.49292e-07 2.35811 9.49292e-07C2.55859 9.49292e-07 2.75617 0.0472618 2.93443 0.137854L4.50255 1.02493C4.57537 1.04548 4.63943 1.0889 4.68503 1.14862C4.73064 1.20835 4.75531 1.28112 4.75531 1.35593C4.75531 1.43074 4.73064 1.50352 4.68503 1.56324C4.63943 1.62297 4.57537 1.66638 4.50255 1.68693L2.96124 2.56077C2.78501 2.65021 2.58975 2.69687 2.39162 2.69687C2.1935 2.69687 1.99823 2.65021 1.82201 2.56077L0.253885 1.6737C0.18431 1.65431 0.122561 1.61403 0.0771888 1.55844C0.0318168 1.50285 0.00506869 1.43469 0.000651131 1.36341C-0.00376643 1.29214 0.0143648 1.22126 0.0525326 1.16062C0.0907005 1.09997 0.147017 1.05256 0.213679 1.02493V1.02493Z" transform="translate(31.8867 47.9631)" fill="#E6EAEB"/>
<path fill-rule="evenodd" clip-rule="evenodd" d="M2.95258 2.57806L4.5207 1.67774C4.58852 1.65394 4.64722 1.60998 4.68873 1.55189C4.73023 1.49381 4.75252 1.42446 4.75252 1.35336C4.75252 1.28226 4.73023 1.2129 4.68873 1.15482C4.64722 1.09674 4.58852 1.05278 4.5207 1.02898L2.95258 0.128657C2.77255 0.0439548 2.57566 1.13201e-06 2.37626 1.13201e-06C2.17686 1.13201e-06 1.97997 0.0439548 1.79994 0.128657L0.231821 1.02898C0.164001 1.05278 0.105304 1.09674 0.0637951 1.15482C0.0222858 1.2129 -3.86817e-07 1.28226 -3.86817e-07 1.35336C-3.86817e-07 1.42446 0.0222858 1.49381 0.0637951 1.55189C0.105304 1.60998 0.164001 1.65394 0.231821 1.67774L1.79994 2.57806C1.97997 2.66276 2.17686 2.70671 2.37626 2.70671C2.57566 2.70671 2.77255 2.66276 2.95258 2.57806Z" transform="translate(20.2754 45.748)" fill="#E6EAEB"/>
<path fill-rule="evenodd" clip-rule="evenodd" d="M2.93917 2.55158L4.50729 1.65126C4.57511 1.62746 4.63381 1.58349 4.67532 1.52541C4.71683 1.46733 4.73911 1.39797 4.73911 1.32687C4.73911 1.25578 4.71683 1.18642 4.67532 1.12834C4.63381 1.07025 4.57511 1.0263 4.50729 1.0025L2.95258 0.128655C2.77255 0.0439528 2.57566 -8.88258e-07 2.37626 -8.88258e-07C2.17686 -8.88258e-07 1.97997 0.0439528 1.79994 0.128655L0.231822 1.02898C0.164001 1.05278 0.105304 1.09674 0.0637943 1.15482C0.0222849 1.2129 7.3329e-08 1.28226 7.3329e-08 1.35335C7.3329e-08 1.42445 0.0222849 1.49381 0.0637943 1.55189C0.105304 1.60997 0.164001 1.65393 0.231822 1.67773L1.79994 2.57806C1.98014 2.6566 2.17564 2.69496 2.37255 2.69038C2.56945 2.6858 2.76292 2.63841 2.93917 2.55158Z" transform="translate(24.1465 43.5635)" fill="#E6EAEB"/>
<path fill-rule="evenodd" clip-rule="evenodd" d="M0.225337 1.02898L1.79346 0.128654C1.97348 0.0439524 2.17037 -1.29231e-06 2.36978 -1.29231e-06C2.56918 -1.29231e-06 2.76607 0.0439524 2.94609 0.128654L4.51421 1.02898C4.58203 1.05278 4.64073 1.09674 4.68224 1.15482C4.72375 1.2129 4.74603 1.28226 4.74603 1.35335C4.74603 1.42445 4.72375 1.49381 4.68224 1.55189C4.64073 1.60997 4.58203 1.65394 4.51421 1.67774L2.94609 2.57805C2.76955 2.66646 2.5744 2.71253 2.37648 2.71253C2.17855 2.71253 1.9834 2.66646 1.80686 2.57805L0.23874 1.67774C0.170396 1.65534 0.110754 1.61257 0.0680159 1.55532C0.0252778 1.49807 0.00154196 1.42915 7.27196e-05 1.35803C-0.00139652 1.28691 0.0194719 1.21709 0.05981 1.15817C0.100148 1.09924 0.157975 1.05411 0.225337 1.02898V1.02898Z" transform="translate(24.1523 47.959)" fill="#E6EAEB"/>
<path fill-rule="evenodd" clip-rule="evenodd" d="M0.231821 5.42466L9.51992 0.128655C9.69994 0.0439528 9.89683 -8.88258e-07 10.0962 -8.88258e-07C10.2956 -8.88258e-07 10.4925 0.0439528 10.6726 0.128655L12.2407 1.02898C12.3085 1.05278 12.3672 1.09674 12.4087 1.15482C12.4502 1.2129 12.4725 1.28226 12.4725 1.35335C12.4725 1.42445 12.4502 1.49381 12.4087 1.55189C12.3672 1.60997 12.3085 1.65393 12.2407 1.67773L2.95258 6.97374C2.77255 7.05844 2.57566 7.1024 2.37626 7.1024C2.17686 7.1024 1.97997 7.05844 1.79994 6.97374L0.231821 6.07342C0.164001 6.04962 0.105304 6.00566 0.0637951 5.94758C0.0222858 5.88949 -3.86817e-07 5.82014 -3.86817e-07 5.74904C-3.86817e-07 5.67794 0.0222858 5.60859 0.0637951 5.5505C0.105304 5.49242 0.164001 5.44846 0.231821 5.42466V5.42466Z" transform="translate(20.2754 50.1833)" fill="#E6EAEB"/>
<path fill-rule="evenodd" clip-rule="evenodd" d="M0.355172 1.02318L1.92329 0.136096C2.09952 0.0466556 2.29479 1.11656e-06 2.49291 1.11656e-06C2.69103 1.11656e-06 2.8863 0.0466556 3.06253 0.136096L4.63065 1.03642C4.69847 1.06022 4.75716 1.10418 4.79867 1.16226C4.84018 1.22034 4.86246 1.2897 4.86246 1.3608C4.86246 1.4319 4.84018 1.50125 4.79867 1.55933C4.75716 1.61742 4.69847 1.66138 4.63065 1.68518L3.07593 2.62522C2.8959 2.70992 2.69901 2.75387 2.49961 2.75387C2.30021 2.75387 2.10332 2.70992 1.92329 2.62522L0.355172 1.7249C0.260974 1.7249 0.170637 1.68793 0.104029 1.62213C0.0374211 1.55633 0 1.46709 0 1.37404C0 1.28098 0.0374211 1.19174 0.104029 1.12594C0.170637 1.06014 0.260974 1.02318 0.355172 1.02318Z" transform="translate(40.7119 38.4189)" fill="#E6EAEB"/>
<path fill-rule="evenodd" clip-rule="evenodd" d="M0.368636 1.02584L1.93676 0.125525C2.11499 0.0428582 2.30947 8.81773e-07 2.50637 8.81773e-07C2.70327 8.81773e-07 2.89776 0.0428582 3.07599 0.125525L4.64411 1.02584C4.71193 1.04964 4.77063 1.09361 4.81214 1.15169C4.85365 1.20977 4.87593 1.27913 4.87593 1.35023C4.87593 1.42132 4.85365 1.49068 4.81214 1.54876C4.77063 1.60684 4.71193 1.65081 4.64411 1.67461L3.07599 2.56169C2.89772 2.65228 2.70014 2.69954 2.49967 2.69954C2.2992 2.69954 2.10162 2.65228 1.92335 2.56169L0.355235 1.74081C0.25926 1.73905 0.167924 1.6997 0.101316 1.63142C0.0347084 1.56314 -0.00171378 1.47152 6.35294e-05 1.37671C0.00184084 1.2819 0.0416688 1.19167 0.11079 1.12587C0.179911 1.06007 0.272661 1.02409 0.368636 1.02584V1.02584Z" transform="translate(44.5703 40.6274)" fill="#E6EAEB"/>
<path fill-rule="evenodd" clip-rule="evenodd" d="M2.88556 2.57226L4.50729 1.67194C4.57511 1.64814 4.63381 1.60418 4.67532 1.54609C4.71683 1.48801 4.73912 1.41866 4.73912 1.34756C4.73912 1.27646 4.71683 1.2071 4.67532 1.14902C4.63381 1.09094 4.57511 1.04698 4.50729 1.02317L2.93917 0.136094C2.76295 0.0466533 2.56768 -1.20675e-06 2.36956 -1.20675e-06C2.17144 -1.20675e-06 1.97617 0.0466533 1.79994 0.136094L0.23182 1.02317C0.164 1.04698 0.105305 1.09094 0.0637954 1.14902C0.0222861 1.2071 1.19813e-06 1.27646 1.19813e-06 1.34756C1.19813e-06 1.41866 0.0222861 1.48801 0.0637954 1.54609C0.105305 1.60418 0.164 1.64814 0.23182 1.67194L1.79994 2.57226C1.97089 2.64706 2.15579 2.6857 2.34275 2.6857C2.52972 2.6857 2.71462 2.64706 2.88556 2.57226Z" transform="translate(37.041 36.2209)" fill="#E6EAEB"/>
<path fill-rule="evenodd" clip-rule="evenodd" d="M0.361875 1.02493L1.92999 0.137853C2.10826 0.0472606 2.30584 -2.62868e-07 2.50631 -2.62868e-07C2.70679 -2.62868e-07 2.90436 0.0472606 3.08263 0.137853L4.65075 1.03817C4.74495 1.0329 4.83741 1.06482 4.90778 1.12689C4.97816 1.18897 5.02069 1.27612 5.02603 1.36917C5.03136 1.46223 4.99905 1.55356 4.93621 1.62309C4.87338 1.69261 4.78516 1.73463 4.69096 1.73989L3.12284 2.64021C2.9446 2.72288 2.75012 2.76574 2.55322 2.76574C2.35632 2.76574 2.16184 2.72288 1.9836 2.64021L0.361875 1.73989C0.2659 1.73989 0.173854 1.70223 0.10599 1.63519C0.0381251 1.56815 0 1.47722 0 1.38241C0 1.2876 0.0381251 1.19668 0.10599 1.12964C0.173854 1.0626 0.2659 1.02493 0.361875 1.02493V1.02493Z" transform="translate(36.8574 40.6282)" fill="#E6EAEB"/>
<path fill-rule="evenodd" clip-rule="evenodd" d="M0.225336 1.02897L1.79346 0.128653C1.97348 0.043951 2.17037 2.34417e-06 2.36978 2.34417e-06C2.56918 2.34417e-06 2.76606 0.043951 2.94609 0.128653L4.51421 1.02897C4.58703 1.04952 4.65109 1.09295 4.69669 1.15267C4.7423 1.21239 4.76697 1.28516 4.76697 1.35997C4.76697 1.43478 4.7423 1.50756 4.69669 1.56728C4.65109 1.62701 4.58703 1.67043 4.51421 1.69097L2.94609 2.57806C2.76987 2.6675 2.5746 2.71415 2.37647 2.71415C2.17835 2.71415 1.98308 2.6675 1.80686 2.57806L0.238739 1.67774C0.170395 1.65534 0.110752 1.61257 0.0680144 1.55532C0.0252763 1.49807 0.00154298 1.42915 7.37422e-05 1.35803C-0.00139549 1.28691 0.0194729 1.21709 0.059811 1.15817C0.100149 1.09925 0.157974 1.05411 0.225336 1.02897V1.02897Z" transform="translate(40.8408 42.8218)" fill="#E6EAEB"/>
<path fill-rule="evenodd" clip-rule="evenodd" d="M3.04242 2.57806L4.65075 1.74394C4.71857 1.72014 4.77727 1.67617 4.81878 1.61809C4.86028 1.56001 4.88257 1.49065 4.88257 1.41955C4.88257 1.34846 4.86028 1.2791 4.81878 1.22102C4.77727 1.16294 4.71857 1.11898 4.65075 1.09518L3.04242 0.128656C2.8624 0.0439537 2.66551 2.08611e-08 2.4661 2.08611e-08C2.2667 2.08611e-08 2.06981 0.0439537 1.88979 0.128656L0.361874 1.02897C0.265899 1.02897 0.173856 1.06664 0.105992 1.13368C0.038127 1.20072 -6.13529e-07 1.29165 -6.13529e-07 1.38646C-6.13529e-07 1.48126 0.038127 1.57219 0.105992 1.63923C0.173856 1.70627 0.265899 1.74394 0.361874 1.74394L1.92999 2.63101C2.10688 2.708 2.29946 2.74329 2.49253 2.7341C2.68559 2.72491 2.87385 2.67149 3.04242 2.57806Z" transform="translate(29.125 40.624)" fill="#E6EAEB"/>
<path fill-rule="evenodd" clip-rule="evenodd" d="M2.95258 2.57401L4.5207 1.67369C4.58852 1.64989 4.64722 1.60593 4.68872 1.54785C4.73023 1.48976 4.75252 1.42041 4.75252 1.34931C4.75252 1.27821 4.73023 1.20886 4.68872 1.15078C4.64722 1.09269 4.58852 1.04873 4.5207 1.02493L2.95258 0.137851C2.77431 0.0472592 2.57673 8.48278e-07 2.37626 8.48278e-07C2.17579 8.48278e-07 1.97821 0.0472592 1.79994 0.137851L0.23182 1.02493C0.164 1.04873 0.105304 1.09269 0.063795 1.15078C0.0222857 1.20886 7.89113e-07 1.27821 7.89113e-07 1.34931C7.89113e-07 1.42041 0.0222857 1.48976 0.063795 1.54785C0.105304 1.60593 0.164 1.64989 0.23182 1.67369L1.79994 2.56077C1.97714 2.65342 2.17416 2.70295 2.37464 2.70526C2.57511 2.70756 2.77324 2.66256 2.95258 2.57401V2.57401Z" transform="translate(33.1152 38.4702)" fill="#E6EAEB"/>
<path fill-rule="evenodd" clip-rule="evenodd" d="M0.259711 1.02317L1.82783 0.136096C2.00406 0.0466555 2.19933 1.01555e-06 2.39745 1.01555e-06C2.59557 1.01555e-06 2.79084 0.0466555 2.96706 0.136096L4.53518 1.03642C4.603 1.06022 4.6617 1.10418 4.70321 1.16226C4.74472 1.22034 4.76701 1.2897 4.76701 1.3608C4.76701 1.4319 4.74472 1.50125 4.70321 1.55933C4.6617 1.61742 4.603 1.66138 4.53518 1.68518L2.96706 2.5855C2.78704 2.6702 2.59015 2.71415 2.39075 2.71415C2.19134 2.71415 1.99446 2.6702 1.81443 2.5855L0.24631 1.68518C0.173868 1.66323 0.11064 1.61856 0.0662064 1.55793C0.0217728 1.4973 -0.00144459 1.42402 7.05356e-05 1.34918C0.00158566 1.27434 0.0277494 1.20204 0.0746015 1.14321C0.121454 1.08438 0.186439 1.04224 0.259711 1.02317V1.02317Z" transform="translate(33.0879 42.8276)" fill="#E6EAEB"/>
<path fill-rule="evenodd" clip-rule="evenodd" d="M0.361938 1.02585L1.93006 0.125525C2.10829 0.0428581 2.30277 7.8076e-07 2.49967 7.8076e-07C2.69657 7.8076e-07 2.89106 0.0428581 3.06929 0.125525L4.63741 1.02585C4.71023 1.04639 4.77428 1.08981 4.81989 1.14954C4.8655 1.20926 4.89017 1.28204 4.89017 1.35685C4.89017 1.43166 4.8655 1.50443 4.81989 1.56415C4.77428 1.62387 4.71023 1.6673 4.63741 1.68785L3.06929 2.62789C2.89102 2.71848 2.69345 2.76574 2.49297 2.76574C2.2925 2.76574 2.09492 2.71848 1.91666 2.62789L0.348535 1.72757C0.254337 1.72581 0.164704 1.68716 0.0993527 1.62012C0.0340017 1.55308 -0.00171402 1.46314 6.32943e-05 1.37008C0.00184061 1.27703 0.0409646 1.18849 0.108829 1.12393C0.176694 1.05937 0.26774 1.02409 0.361938 1.02585V1.02585Z" transform="translate(36.8574 45.0361)" fill="#E6EAEB"/>
<path fill-rule="evenodd" clip-rule="evenodd" d="M1.17944 28.8897L0.308263 28.0291L0.254652 27.9364L0.201041 27.8305L0.160833 27.7246L0.120625 27.6054L0.0804164 27.4863L0.0536109 27.3671L0.0268055 27.2347L0.0134027 27.0891L0 26.9567V26.7978L0.0134027 2.30376V2.14488L0.0268055 1.986L0.0402082 1.84036L0.0536109 1.68148L0.0938192 1.50936L0.120625 1.35048L0.160833 1.1916L0.214444 1.03272L0.268055 0.87384L0.321666 0.714962L0.388679 0.55608L0.455693 0.397199L0.522707 0.23832L0.603123 0.0794392L0.643331 -2.02027e-07L1.67534 0.582561L1.63513 0.63552L1.55472 0.781161L1.4609 0.940042L1.39388 1.09892L1.31347 1.2578L1.24645 1.41668L1.19284 1.56232L1.12583 1.7212L1.08562 1.89332L1.03201 2.0522L0.991803 2.21108L0.951594 2.36996L0.924789 2.52884L0.897983 2.68772L0.884581 2.8466V3.00548L0.871178 3.15112V27.6584V27.804L0.884581 27.9497L0.897983 28.0953L0.911386 28.2145L0.938192 28.3469L0.9784 28.466L1.01861 28.572L1.07222 28.6911L1.12583 28.7838L1.17944 28.8897Z" transform="translate(0 22.3889)" fill="#2C3E50"/>
<path fill-rule="evenodd" clip-rule="evenodd" d="M25.3848 15.9675V14.1006H25.358H25.1837H25.0095L24.8219 14.0874L24.6476 14.0741L24.4734 14.0609L24.2992 14.0344L24.1383 14.0079L23.9641 13.9815L23.7899 13.9417L23.629 13.902L23.4682 13.8623L23.3074 13.8093L23.1599 13.7564L22.9991 13.7034L22.8517 13.624L22.7176 13.5578L22.5836 13.4916L1.04541 1.17836L0.911386 1.09892L0.790761 1.01948L0.670137 0.940039L0.576318 0.847359L0.469096 0.767922L0.388679 0.675242L0.308263 0.582563L0.241249 0.47664L0.174236 0.383961L0.120625 0.291281L0.0804164 0.198601L0.0402082 0.0926787L3.19546e-09 -1.01013e-06V1.86684L0.0402082 1.97276L0.0804164 2.06544L0.120625 2.17136L0.174236 2.26404L0.241249 2.35672L0.308263 2.4494L0.388679 2.54208L0.469096 2.63476L0.576318 2.72744L0.670137 2.80688L0.790761 2.89957L0.911386 2.979L1.04541 3.05844L22.5836 15.3584L22.7176 15.4379L22.8517 15.5041L22.9991 15.5703L23.1599 15.6232L23.3074 15.6894L23.4682 15.7424L23.629 15.7821L23.7899 15.8218L23.9641 15.8615L24.1383 15.888L24.2992 15.9145L24.4734 15.941L24.6476 15.9542L24.8219 15.9675H25.0095L25.1837 15.9807L25.358 15.9675H25.3848Z" transform="translate(1.08594 54.0193)" fill="#2C3E50"/>
</svg>
