<svg width="52" height="70" viewBox="0 0 52 70" fill="none" xmlns="http://www.w3.org/2000/svg">
<path fill-rule="evenodd" clip-rule="evenodd" d="M14.507 10.8321L13.0063 10.2905C12.556 10.1181 11.9057 10.4628 11.3805 11.1029L7.87879 15.4111C7.71791 15.6765 7.48554 15.8928 7.20742 16.0362C6.9293 16.1796 6.61628 16.2444 6.30303 16.2235L1.80087 14.9433C1.32564 14.7956 0.650313 15.1895 0.150072 15.8542L-2.38533e-07 16.0758V8.19791L14.4319 -1.12694e-06L14.507 10.8321Z" transform="translate(12.1289 20.2607)" fill="#F5F5F5"/>
<path fill-rule="evenodd" clip-rule="evenodd" d="M50.9245 3.8897L44.4714 0.221565L43.646 0.0246183L42.6205 0L41.3949 0.123092L40.0193 0.418512L38.4935 0.837024L36.8177 1.40325L35.0419 2.06794L33.1409 2.85573L31.165 3.74199L29.139 4.7021L27.038 5.76069L24.912 6.89314L22.761 8.09943L20.6099 9.33035L18.4839 10.6105L16.4079 11.9399L14.3569 13.2693L12.381 14.6479L10.5051 16.0019L8.70419 17.3559L7.02838 18.7099L5.50265 20.0147L4.12699 21.2949L2.9014 22.5504L1.90091 23.7321L1.07552 24.8645L0.475229 25.8985L0.100048 26.8832L0 27.7449L0.0750361 30.3052L0.100048 32.7916L0.12506 35.2288L0.150072 37.5676V39.8571V42.0481L0.175084 44.1899L0.200096 46.2086L0.25012 48.1781L0.350169 50.0491L0.450217 51.8462L0.625301 53.5449L0.825397 55.1451L1.07552 56.6468L1.40067 58.05L1.80087 59.3548L2.2761 60.5611L2.82636 61.6443L3.45166 62.6291L4.17701 63.5153L5.00241 64.2785L5.95286 64.9186L12.406 68.5867L11.4805 67.9466L10.6551 67.1835L9.90477 66.3218L9.27947 65.3371L8.7292 64.2293L8.27898 63.023L7.87879 61.7182L7.55363 60.3149L7.30351 58.8132L7.07841 57.213L6.92833 55.5144L6.80327 53.7418L6.72824 51.8462L6.67821 49.9014L6.62819 47.8581V45.7163L6.60318 43.5252V41.2357V38.897L6.57817 36.4598L6.52814 33.9733L6.45311 31.413L6.57817 30.5514L6.92833 29.5666L7.52862 28.5327L8.35402 27.4002L9.37951 26.2185L10.5801 24.9876L11.9558 23.6828L13.5065 22.3781L15.1823 21.0241L16.9582 19.6701L18.8341 18.316L20.81 16.962L22.861 15.608L24.962 14.2786L27.088 12.9985L29.2391 11.7676L31.3651 10.5613L33.4911 9.42882L35.5921 8.37024L37.6431 7.41012L39.6191 6.52386L41.495 5.73607L43.2958 5.07138L44.9716 4.50516L46.4974 4.08664L47.873 3.81584L49.0736 3.66813L50.0991 3.69275L50.9245 3.8897Z" fill="#F0B11D"/>
<path fill-rule="evenodd" clip-rule="evenodd" d="M0.00122654 27.7561C0.876648 55.4271 -3.62552 72.2168 22.7622 64.4374C49.1499 42.2809 44.6727 30.5134 45.5482 1.90685C45.8233 -7.22656 -0.273906 18.9427 0.00122654 27.7561Z" transform="translate(6.4502 3.65674)" fill="#FFCB05"/>
<path fill-rule="evenodd" clip-rule="evenodd" d="M0.00101674 19.6454C0.876438 47.3165 -3.62573 64.1062 22.762 56.3268V5.16513e-07C11.3065 6.49924 -0.124043 15.3126 0.00101674 19.6454Z" transform="translate(6.4541 11.7676)" fill="#FFCB05"/>
<path fill-rule="evenodd" clip-rule="evenodd" d="M17.3584 3.2869e-07L16.4079 0.59084L14.3569 1.92023L12.381 3.29886L10.5051 4.65287L8.70419 6.00688L7.02838 7.36088L5.50265 8.66566L4.12699 9.94581L2.9014 11.2013L1.90091 12.383L1.07552 13.5155L0.475229 14.5494L0.100048 15.5342L0 16.3958L0.0750361 18.9561L0.100048 21.4426L0.12506 23.8798L0.150072 26.2185V28.508V30.6991L0.175084 32.8409L0.200096 34.8596L0.25012 36.829L0.275132 36.9768L6.72824 40.6449V40.6203V40.4972L6.67821 38.5523L6.62819 36.509V34.3672L6.60318 32.1762V29.8867V27.5479L6.57817 25.1107L6.52814 22.6243L6.45311 20.064L6.57817 19.2023L6.92833 18.2176L7.52862 17.1836L8.35402 16.0512L9.37951 14.8695L10.5801 13.6386L11.9558 12.3338L13.5065 11.029L15.1823 9.67501L16.9582 8.321L18.8341 6.96699L20.81 5.61298L22.861 4.25897L23.8365 3.64352L17.3584 3.2869e-07Z" transform="translate(0 11.3494)" fill="#F0B11D"/>
<path fill-rule="evenodd" clip-rule="evenodd" d="M0.100048 1.87823e-07L0 0.861643L0.0750361 3.42195L0.100048 5.9084L0.12506 8.34562L0.150072 10.6844V12.9739V15.1649L0.175084 17.3067L0.200096 19.3254L0.25012 21.2949L0.350169 23.1659L0.450217 24.963L0.625301 26.6617L0.825397 28.2619L1.07552 29.7636L1.40067 31.1668L1.80087 32.4716L2.2761 33.6779L2.82636 34.7611L3.45166 35.7458L4.17701 36.6321L5.00241 37.3953L5.95287 38.0353L12.406 41.7035L11.4805 41.0634L10.6551 40.3002L9.90477 39.4386L9.27947 38.4539L8.7292 37.346L8.27899 36.1397L7.87879 34.835L7.55364 33.4317L7.30352 31.93L7.07841 30.3298L6.92834 28.6311L6.80328 26.8586L6.72824 24.963L6.67822 23.0182L6.62819 20.9748V18.833L6.60318 16.642V14.3525V12.0138L6.57817 9.57654L6.52814 7.09008L6.45311 4.52978L6.57817 3.66813L0.100048 1.87823e-07Z" transform="translate(0 26.8831)" fill="#D19917"/>
<path fill-rule="evenodd" clip-rule="evenodd" d="M11.5609 16.9262L0.7057 24.3117C0.537985 24.423 0.393621 24.5651 0.280495 24.7302C0.164559 24.9033 0.0799362 25.0949 0.030374 25.2964C-0.0101254 25.4665 -0.0101254 25.6434 0.030374 25.8134C0.044107 25.8757 0.0713262 25.9343 0.110174 25.9853C0.149022 26.0363 0.198585 26.0784 0.255483 26.1088L8.43442 29.58C8.54668 29.634 8.64666 29.7099 8.72834 29.803C8.81001 29.8961 8.87169 30.0044 8.90965 30.1216V30.1216C8.99332 30.453 8.99332 30.7996 8.90965 31.131L6.40844 44.5972C6.3612 44.758 6.3612 44.9288 6.40844 45.0896C6.42818 45.1467 6.461 45.1987 6.50437 45.2414C6.54774 45.284 6.60049 45.3163 6.65856 45.3358V45.3358C6.79555 45.3868 6.94678 45.3868 7.08377 45.3358C7.2492 45.2419 7.39379 45.1164 7.50897 44.9665L16.9135 33.322C17.1465 33.018 17.4349 32.7592 17.7639 32.5588V32.5588C18.025 32.3967 18.3312 32.3192 18.6393 32.3373L28.0188 33.322C28.1648 33.3708 28.3231 33.3708 28.4691 33.322C28.6356 33.2093 28.7798 33.0675 28.8943 32.9035C29.0186 32.7319 29.1117 32.5403 29.1694 32.3373C29.2139 32.1594 29.2139 31.9736 29.1694 31.7957L26.6682 21.0375C26.5938 20.6967 26.5938 20.3443 26.6682 20.0035C26.7696 19.6012 26.9387 19.2184 27.1684 18.871L35.3724 6.02027C35.4907 5.84843 35.5755 5.65642 35.6225 5.45405C35.6628 5.29232 35.6628 5.12341 35.6225 4.96168C35.6044 4.90085 35.5724 4.84486 35.5291 4.79795C35.4858 4.75103 35.4322 4.71443 35.3724 4.69088C35.2359 4.63743 35.0837 4.63743 34.9472 4.69088L24.092 9.61455C23.8329 9.75528 23.5308 9.799 23.2415 9.73764C23.1234 9.70577 23.0134 9.64987 22.9186 9.57353C22.8239 9.4972 22.7464 9.40215 22.6913 9.29451V9.29451L18.8144 0.284198C18.7922 0.224313 18.7556 0.170626 18.7077 0.127746C18.6597 0.0848657 18.602 0.0540739 18.5393 0.0380146C18.3936 -0.0126715 18.2347 -0.0126715 18.0891 0.0380146V0.0380146C17.9212 0.139032 17.7765 0.273142 17.6639 0.431908C17.5382 0.602763 17.445 0.794595 17.3887 0.99813L12.9616 14.9567C12.8362 15.3513 12.6506 15.7248 12.4113 16.0646C12.179 16.3897 11.8913 16.6729 11.5609 16.9016V16.9016V16.9262Z" transform="translate(11.1992 17.1948)" fill="#D19917"/>
</svg>
