<?xml version="1.0" encoding="utf-8"?>
<!-- Generator: Adobe Illustrator 16.0.0, SVG Export Plug-In . SVG Version: 6.00 Build 0)  -->
<!DOCTYPE svg PUBLIC "-//W3C//DTD SVG 1.1//EN" "http://www.w3.org/Graphics/SVG/1.1/DTD/svg11.dtd">
<svg version="1.1" id="Layer_1" xmlns="http://www.w3.org/2000/svg" xmlns:xlink="http://www.w3.org/1999/xlink" x="0px" y="0px"
	 width="240px" height="120px" viewBox="0 0 240 120" enable-background="new 0 0 240 120" xml:space="preserve">
<g>
	<polygon fill="#F8C26A" points="72.877,76.207 119.201,104.305 167.123,76.637 119.999,49.001 	"/>
	<polygon fill="#F8C26A" points="72.877,67.249 119.201,95.347 167.123,67.682 119.999,40.044 	"/>
	<polygon fill="#E2AF62" points="72.877,67.249 72.877,76.207 119.201,104.305 119.201,95.347 	"/>
	<polygon fill="#C59C6D" points="167.123,67.682 167.123,76.64 119.201,104.305 119.201,95.35 	"/>
	<polygon fill="#3DB54A" points="60.262,20.941 60.262,28.592 69.349,15.695 	"/>
	<path fill="#754D25" d="M95.063,66.53l-8.465-40.596l-13.83,1.21L83.13,67.453h0.003c0.2,0.676,0.745,1.328,1.647,1.849
		c1.163,0.67,2.708,0.997,4.255,0.985c1.536-0.012,3.078-0.36,4.252-1.04c1.186-0.685,1.776-1.568,1.776-2.449
		c0-0.09-0.009-0.18-0.021-0.265L95.063,66.53z"/>
	<path fill="#603A17" d="M77.271,26.751l-4.502,0.395L83.132,67.45h0.003c0.197,0.679,0.742,1.331,1.647,1.854
		c0.64,0.366,1.4,0.622,2.21,0.784L77.271,26.751z"/>
	<path fill="#A67D52" d="M74.675,23.649c1.342-0.775,3.124-1.169,4.911-1.181c1.788-0.01,3.582,0.36,4.955,1.116
		c1.372,0.757,2.056,1.77,2.056,2.792c0,1.021-0.684,2.049-2.056,2.843c-1.367,0.788-3.15,1.191-4.933,1.206
		c-1.794,0.016-3.585-0.366-4.933-1.145c-1.342-0.772-2.013-1.794-2.013-2.816C72.662,25.443,73.333,24.427,74.675,23.649"/>
	<path fill="#C59C6D" d="M76.264,24.547c0.911-0.526,2.12-0.794,3.335-0.803c1.216-0.006,2.435,0.246,3.368,0.761
		c0.931,0.514,1.397,1.203,1.397,1.895c0,0.692-0.466,1.395-1.397,1.934c-0.927,0.535-2.143,0.809-3.351,0.817
		c-1.218,0.009-2.438-0.249-3.352-0.775c-0.911-0.526-1.366-1.222-1.366-1.914C74.898,25.767,75.353,25.074,76.264,24.547"/>
	<path fill="#E2AF62" d="M95.053,75.026c0.502-0.289,1.166-0.437,1.833-0.439c0.671-0.006,1.342,0.133,1.853,0.415
		c0.514,0.282,0.77,0.661,0.77,1.043s-0.255,0.767-0.77,1.063c-0.511,0.295-1.175,0.445-1.844,0.451
		c-0.67,0.006-1.337-0.136-1.842-0.427c-0.502-0.289-0.751-0.67-0.751-1.052S94.551,75.317,95.053,75.026"/>
	<path fill="#E2AF62" d="M117.35,71.588c0.502-0.288,1.167-0.436,1.834-0.441c0.67-0.006,1.342,0.135,1.853,0.418
		c0.514,0.282,0.77,0.661,0.77,1.042c0,0.382-0.256,0.767-0.77,1.062c-0.511,0.294-1.177,0.447-1.844,0.453
		c-0.67,0.007-1.339-0.135-1.844-0.43c-0.502-0.288-0.75-0.67-0.75-1.052C116.6,72.259,116.848,71.877,117.35,71.588"/>
	<path fill="#E2AF62" d="M115.19,80.784c0.502-0.289,1.166-0.437,1.834-0.439c0.67-0.006,1.342,0.133,1.853,0.415
		c0.514,0.282,0.77,0.661,0.77,1.043s-0.255,0.767-0.77,1.063c-0.511,0.295-1.176,0.445-1.843,0.451
		c-0.67,0.006-1.339-0.136-1.844-0.427c-0.502-0.289-0.75-0.67-0.75-1.052S114.688,81.075,115.19,80.784"/>
	<path fill="#E2AF62" d="M133.344,76.514c0.502-0.289,1.168-0.436,1.835-0.438c0.67-0.007,1.342,0.132,1.853,0.414
		c0.514,0.283,0.77,0.661,0.77,1.043s-0.256,0.767-0.77,1.061c-0.511,0.298-1.175,0.448-1.844,0.454
		c-0.67,0.006-1.339-0.135-1.844-0.427c-0.5-0.291-0.749-0.673-0.749-1.055S132.844,76.802,133.344,76.514"/>
	<path fill="#E2AF62" d="M135.949,67.556c0.502-0.289,1.166-0.437,1.833-0.439c0.672-0.006,1.342,0.133,1.854,0.415
		c0.514,0.282,0.769,0.661,0.769,1.043s-0.255,0.767-0.769,1.061c-0.512,0.298-1.176,0.448-1.843,0.454
		c-0.671,0.006-1.339-0.136-1.844-0.43c-0.501-0.289-0.751-0.67-0.751-1.052S135.448,67.844,135.949,67.556"/>
	<path fill="#E2AF62" d="M143.915,73.076c0.501-0.289,1.166-0.439,1.836-0.442c0.667-0.006,1.34,0.133,1.851,0.418
		c0.515,0.282,0.77,0.661,0.77,1.043s-0.255,0.766-0.77,1.061c-0.511,0.295-1.178,0.447-1.845,0.454
		c-0.67,0.006-1.337-0.136-1.842-0.43c-0.502-0.289-0.752-0.671-0.752-1.052C143.163,73.746,143.413,73.364,143.915,73.076"/>
	<path fill="#E2AF62" d="M119.282,46.083c0.502-0.29,1.167-0.438,1.834-0.44c0.672-0.006,1.342,0.132,1.853,0.416
		c0.514,0.282,0.77,0.661,0.77,1.043s-0.256,0.766-0.77,1.061c-0.511,0.296-1.175,0.446-1.844,0.452
		c-0.67,0.008-1.338-0.135-1.843-0.427c-0.5-0.29-0.75-0.672-0.75-1.053C118.532,46.753,118.781,46.373,119.282,46.083"/>
	<path fill="#E2AF62" d="M97.657,62.636c0.501-0.288,1.166-0.436,1.834-0.438c0.67-0.006,1.34,0.132,1.851,0.415
		c0.514,0.282,0.77,0.661,0.77,1.046c0,0.378-0.256,0.763-0.77,1.061c-0.511,0.294-1.175,0.444-1.842,0.45
		c-0.671,0.007-1.338-0.135-1.843-0.427c-0.502-0.288-0.751-0.67-0.751-1.055C96.906,63.31,97.155,62.925,97.657,62.636"/>
	<polygon fill="#8DC641" points="69.349,15.695 60.262,20.941 69.496,26.55 79.342,21.124 	"/>
	<polygon fill="#3DB54A" points="60.262,31.796 63.019,41.146 69.496,37.402 	"/>
	<polygon fill="#3DB54A" points="98.426,20.941 98.426,28.592 89.339,15.695 	"/>
	<polygon fill="#8DC641" points="89.34,15.695 98.428,20.941 89.193,26.55 79.345,21.124 	"/>
	<polygon fill="#3DB54A" points="98.426,31.796 95.669,41.146 89.191,37.402 	"/>
	<polygon fill="#754D25" points="76.18,33.828 74.677,34.721 78.505,40.909 80.079,39.999 	"/>
	<path fill="#754D25" d="M78.019,34.021c-1.416-0.818-2.542-0.162-2.501,1.453c0.039,1.618,1.211,3.621,2.602,4.455
		c1.395,0.831,2.52,0.176,2.502-1.454C80.606,36.844,79.434,34.841,78.019,34.021"/>
	<path fill="#8D633A" d="M76.531,34.87c-1.416-0.818-2.542-0.163-2.502,1.453c0.039,1.618,1.213,3.621,2.603,4.455
		c1.395,0.831,2.521,0.176,2.502-1.456C79.119,37.692,77.946,35.689,76.531,34.87"/>
	<polygon fill="#603A17" points="85.99,34.434 87.491,35.326 83.662,41.514 82.091,40.603 	"/>
	<path fill="#603A17" d="M84.15,34.626c1.416-0.817,2.542-0.163,2.502,1.452c-0.041,1.619-1.212,3.622-2.604,4.455
		c-1.393,0.831-2.52,0.176-2.501-1.454C81.563,37.447,82.735,35.444,84.15,34.626"/>
	<path fill="#8D633A" d="M85.638,35.475c1.416-0.819,2.542-0.164,2.501,1.453c-0.041,1.618-1.212,3.621-2.604,4.455
		c-1.393,0.831-2.52,0.176-2.502-1.456C83.049,38.296,84.223,36.294,85.638,35.475"/>
	<polygon fill="#8DC641" points="69.349,26.55 60.262,31.796 69.496,37.404 79.342,31.979 	"/>
	<polygon fill="#8DC641" points="89.34,26.55 98.428,31.796 89.193,37.404 79.345,31.979 	"/>
	<polygon fill="#3DB54A" points="179.738,20.941 179.738,28.592 170.651,15.695 	"/>
	<path fill="#754D25" d="M144.934,66.53l8.468-40.596l13.83,1.21L156.87,67.453h-0.004c-0.201,0.676-0.745,1.328-1.646,1.849
		c-1.163,0.67-2.707,0.997-4.258,0.985c-1.533-0.012-3.077-0.36-4.25-1.04c-1.184-0.685-1.778-1.568-1.778-2.449
		c0-0.09,0.012-0.18,0.023-0.265L144.934,66.53z"/>
	<path fill="#603A17" d="M162.729,26.751l4.502,0.395L156.866,67.45h-0.003c-0.198,0.679-0.739,1.331-1.646,1.854
		c-0.637,0.366-1.4,0.622-2.209,0.784L162.729,26.751z"/>
	<path fill="#A67D52" d="M165.326,23.649c-1.344-0.775-3.125-1.169-4.913-1.181c-1.788-0.01-3.582,0.36-4.956,1.116
		c-1.37,0.757-2.056,1.77-2.056,2.792c0,1.021,0.686,2.049,2.056,2.843c1.367,0.788,3.152,1.191,4.935,1.206
		c1.794,0.016,3.585-0.366,4.935-1.145c1.34-0.772,2.011-1.794,2.011-2.816C167.337,25.443,166.666,24.427,165.326,23.649"/>
	<path fill="#C59C6D" d="M163.733,24.547c-0.907-0.526-2.119-0.794-3.336-0.803c-1.214-0.006-2.434,0.246-3.365,0.761
		c-0.932,0.514-1.395,1.203-1.395,1.895c0,0.692,0.463,1.395,1.395,1.934c0.925,0.535,2.143,0.809,3.354,0.817
		c1.217,0.009,2.434-0.249,3.348-0.775c0.913-0.526,1.37-1.222,1.37-1.914C165.104,25.767,164.646,25.074,163.733,24.547"/>
	<polygon fill="#8DC641" points="170.651,15.695 179.738,20.941 170.504,26.55 160.656,21.124 	"/>
	<polygon fill="#3DB54A" points="179.738,31.796 176.979,41.146 170.501,37.402 	"/>
	<polygon fill="#3DB54A" points="141.572,20.941 141.572,28.592 150.661,15.695 	"/>
	<polygon fill="#8DC641" points="150.661,15.695 141.572,20.941 150.806,26.55 160.656,21.124 	"/>
	<polygon fill="#3DB54A" points="141.572,31.796 144.329,41.146 150.806,37.402 	"/>
	<polygon fill="#754D25" points="163.82,33.828 165.32,34.721 161.491,40.909 159.923,39.999 	"/>
	<path fill="#754D25" d="M161.981,34.021c1.415-0.818,2.542-0.162,2.503,1.453c-0.042,1.618-1.214,3.621-2.603,4.455
		c-1.395,0.831-2.524,0.176-2.503-1.454C159.394,36.844,160.565,34.841,161.981,34.021"/>
	<path fill="#8D633A" d="M163.469,34.87c1.415-0.818,2.542-0.163,2.5,1.453c-0.039,1.618-1.211,3.621-2.603,4.455
		c-1.394,0.831-2.518,0.176-2.5-1.456C160.882,37.692,162.054,35.689,163.469,34.87"/>
	<polygon fill="#603A17" points="154.009,34.434 152.506,35.326 156.335,41.514 157.909,40.603 	"/>
	<path fill="#603A17" d="M155.848,34.626c-1.415-0.817-2.542-0.163-2.5,1.452c0.039,1.619,1.211,3.622,2.603,4.455
		c1.395,0.831,2.519,0.176,2.5-1.454C158.438,37.447,157.267,35.444,155.848,34.626"/>
	<path fill="#8D633A" d="M154.363,35.475c-1.418-0.819-2.542-0.164-2.503,1.453c0.039,1.618,1.211,3.621,2.603,4.455
		c1.394,0.831,2.521,0.176,2.503-1.456C156.948,38.296,155.775,36.294,154.363,35.475"/>
	<polygon fill="#8DC641" points="170.651,26.55 179.738,31.796 170.504,37.404 160.656,31.979 	"/>
	<polygon fill="#8DC641" points="150.661,26.55 141.572,31.796 150.806,37.404 160.656,31.979 	"/>
	<path fill="#412312" d="M90.702,45.641l0.367,1.878c0.126,0.271,0.197,0.548,0.197,0.831c0,0.898-0.652,1.769-1.841,2.455
		c-1.26,0.729-2.948,1.14-4.745,1.154h-0.101c-1.773,0-3.423-0.388-4.638-1.089c-1.157-0.669-1.794-1.533-1.794-2.432
		c0-0.092,0.01-0.188,0.025-0.279l-0.391-1.515c-0.388,0.555-0.595,1.163-0.595,1.794c0,1.255,0.807,2.416,2.275,3.262
		c1.36,0.785,3.18,1.218,5.118,1.218h0.11c1.961-0.019,3.813-0.475,5.217-1.282c1.495-0.865,2.32-2.031,2.32-3.286
		C92.225,47.337,91.688,46.401,90.702,45.641"/>
	<path fill="#412312" d="M149.272,45.708l-0.366,1.879c-0.126,0.271-0.198,0.547-0.198,0.831c0,0.898,0.655,1.769,1.839,2.455
		c1.262,0.729,2.951,1.139,4.748,1.153h0.103c1.77,0,3.42-0.388,4.634-1.089c1.16-0.667,1.797-1.533,1.797-2.432
		c0-0.091-0.012-0.188-0.024-0.279l0.391-1.515c0.385,0.555,0.593,1.163,0.593,1.794c0,1.257-0.809,2.416-2.275,3.263
		c-1.358,0.782-3.18,1.219-5.114,1.219h-0.114c-1.96-0.019-3.811-0.476-5.214-1.283c-1.497-0.866-2.323-2.032-2.323-3.286
		C147.746,47.405,148.287,46.469,149.272,45.708"/>
	<path fill="#7F99AA" d="M95.063,49.001L94.3,53.41c0,0,8.306,12.904,25.399,14.283c16.857-1.019,27.079-14.127,27.079-14.127
		l-1.842-4.286C144.937,49.28,137.425,53.696,95.063,49.001"/>
	<path fill="#412312" d="M119.395,67.967c-0.972,0-1.941-0.054-2.908-0.162c-15.888-1.794-25.328-18.056-25.423-18.22l0.834-0.477
		c0.091,0.159,9.302,16.007,24.703,17.744c10.475,1.181,21.406-4.325,32.467-16.366l0.709,0.649
		C139.502,62.317,129.298,67.967,119.395,67.967"/>
	<path fill="#412312" d="M122.296,52.137c-17.036,0-30.47-3.507-30.672-3.56l0.25-0.929c0.293,0.079,29.492,7.691,56.341,0.31
		l0.253,0.924C139.629,51.313,130.539,52.137,122.296,52.137"/>
</g>
</svg>
